<?xml version="1.0" encoding="UTF-8"?>
<svg version="1.1" xmlns="http://www.w3.org/2000/svg" width="556" height="587">
<path d="M0 0 C0.97324219 0.21962402 1.94648438 0.43924805 2.94921875 0.66552734 C16.10632855 3.67183332 28.59191543 7.71848152 41 13 C41.74056641 13.30663574 42.48113281 13.61327148 43.24414062 13.92919922 C59.0135574 20.46815127 73.41891516 28.63120768 87 39 C87.98484375 39.71929687 88.9696875 40.43859375 89.984375 41.1796875 C98.61907583 47.51326247 106.45066279 54.41587322 114 62 C114.85078125 62.82757813 115.7015625 63.65515625 116.578125 64.5078125 C122.87045971 70.67135673 128.54456156 77.07063609 134 84 C134.75539063 84.89203125 135.51078125 85.7840625 136.2890625 86.703125 C158.17192279 113.36172353 172.56186078 149.30587169 179 183 C179.16631424 183.83519669 179.33262848 184.67039337 179.50398254 185.53089905 C180.95174457 193.37319856 181.30673484 200.95486328 181.30078125 208.91796875 C181.30506638 210.21462967 181.3093515 211.51129059 181.31376648 212.84724426 C181.32116651 215.57602055 181.3209844 218.30466734 181.31567383 221.03344727 C181.3110496 223.79402997 181.31794064 226.55417147 181.33618164 229.31469727 C181.43322533 244.14098349 181.50954787 258.51935886 178 273 C177.77030518 274.03374756 177.54061035 275.06749512 177.30395508 276.13256836 C176.6698118 278.89623803 175.97860018 281.63485157 175.25 284.375 C174.86593994 285.82434937 174.86593994 285.82434937 174.47412109 287.30297852 C170.28749192 302.67540262 164.48739473 316.95766299 157 331 C156.48566406 331.98355469 155.97132813 332.96710938 155.44140625 333.98046875 C144.55587686 354.42402395 131.0111396 372.53090834 114.375 388.59765625 C111.96800005 390.94295638 111.96800005 390.94295638 109.98828125 393.55078125 C84.93074688 424.41733144 36.47264987 443.23353139 -0.875 451.3125 C-1.54982422 451.45977539 -2.22464844 451.60705078 -2.91992188 451.75878906 C-17.81247415 454.75554675 -32.72815519 455.40968743 -47.875 455.375 C-49.28564728 455.37368576 -49.28564728 455.37368576 -50.72479248 455.37234497 C-80.7293179 455.28052875 -109.40050816 450.09626653 -137 438 C-138.26322999 437.48299857 -139.52759251 436.96875722 -140.79296875 436.45703125 C-155.00921947 430.61127788 -168.57645933 423.03242866 -180.7734375 413.65625 C-183.02800465 411.90992609 -183.02800465 411.90992609 -185.7890625 410.40625 C-186.51867187 409.9421875 -187.24828125 409.478125 -188 409 C-188 408.34 -188 407.68 -188 407 C-188.70125 406.77957031 -189.4025 406.55914062 -190.125 406.33203125 C-193.67055123 404.68932341 -196.2088152 402.35471086 -199 399.6875 C-199.50789063 399.21376953 -200.01578125 398.74003906 -200.5390625 398.25195312 C-203.75966073 395.23367452 -206.88659687 392.12884149 -210 389 C-210.64582031 388.37738281 -211.29164063 387.75476563 -211.95703125 387.11328125 C-216.4192401 382.78259013 -220.34510625 378.22163899 -224.140625 373.296875 C-225.93534246 370.99476187 -225.93534246 370.99476187 -227.9296875 369.0859375 C-263.22732108 333.52190669 -278.01248499 274.07553014 -278.25 225.5 C-278.13043476 201.06198685 -274.62449078 177.23850588 -267 154 C-266.60941406 152.79988281 -266.21882813 151.59976563 -265.81640625 150.36328125 C-261.17933558 136.78654648 -254.71041816 124.26615133 -248 111.625 C-247.41871338 110.51930664 -246.83742676 109.41361328 -246.23852539 108.27441406 C-242.68155696 101.65498622 -238.78471467 95.7844842 -234 90 C-232.87054891 88.54511123 -231.74503572 87.08714948 -230.625 85.625 C-227.83210582 82.04680224 -225.02363824 78.48153835 -222.1875 74.9375 C-221.43855469 73.99777344 -220.68960938 73.05804688 -219.91796875 72.08984375 C-219.28503906 71.40019531 -218.65210938 70.71054688 -218 70 C-217.34 70 -216.68 70 -216 70 C-215.731875 69.360625 -215.46375 68.72125 -215.1875 68.0625 C-214 66 -214 66 -211 65 C-211 64.34 -211 63.68 -211 63 C-210.34 63 -209.68 63 -209 63 C-208.77183594 62.44054687 -208.54367188 61.88109375 -208.30859375 61.3046875 C-193.38713537 35.02510408 -147.08416817 15.06266999 -119.93896484 6.61035156 C-118.02845344 6.00895663 -116.13304848 5.36023468 -114.23828125 4.7109375 C-78.85863089 -7.06884228 -36.23511143 -8.59739104 0 0 Z M-101 18 C-99.41083183 21.95747746 -96.65962474 24.56356927 -93.65234375 27.47265625 C-93.12161758 27.99580917 -92.59089142 28.5189621 -92.04408264 29.05796814 C-89.78701725 31.2826413 -87.51856861 33.49555662 -85.25024414 35.70874023 C-77.98804808 42.80957775 -71.25988898 49.98232448 -65 58 C-64.02312329 59.21563826 -63.04539789 60.43059556 -62.06640625 61.64453125 C-48.55932794 78.66051928 -34.27968561 96.87742114 -28 118 C-22.12076594 112.19614074 -16.56793982 106.10075702 -11 100 C-9.84371094 98.73542969 -9.84371094 98.73542969 -8.6640625 97.4453125 C-7.71660156 96.38957031 -7.71660156 96.38957031 -6.75 95.3125 C-6.20859375 94.71050781 -5.6671875 94.10851562 -5.109375 93.48828125 C-3.8007865 92.04212161 -3.8007865 92.04212161 -4 90 C-3.34 90 -2.68 90 -2 90 C-0.50370821 88.3214487 0.92292661 86.58041102 2.3125 84.8125 C4.70097259 81.7833166 7.0359822 78.96472235 9.79296875 76.26171875 C12.23280036 74.28811781 12.23280036 74.28811781 12 72 C12.639375 71.731875 13.27875 71.46375 13.9375 71.1875 C16.33131686 70.11332248 16.33131686 70.11332248 17 67 C17.66 67 18.32 67 19 67 C19 66.34 19 65.68 19 65 C19.99 64.67 20.98 64.34 22 64 C22 63.34 22 62.68 22 62 C22.66 62 23.32 62 24 62 C24 61.34 24 60.68 24 60 C24.58265625 59.74605469 25.1653125 59.49210937 25.765625 59.23046875 C28.24188033 57.86679667 29.80520626 56.35774797 31.75 54.3125 C38.02327363 47.88820312 44.73778753 42.2728298 52 37 C35.39658392 23.63725068 8.65703763 17.37240679 -12 14 C-13.03398926 13.82629883 -14.06797852 13.65259766 -15.13330078 13.47363281 C-25.89442048 11.84002758 -36.50873896 11.60523273 -47.375 11.625 C-48.75348618 11.62382172 -48.75348618 11.62382172 -50.15982056 11.62261963 C-67.50668177 11.64033994 -84.31087861 12.93162114 -101 18 Z M-118.87890625 22.984375 C-119.6255957 23.25491699 -120.37228516 23.52545898 -121.14160156 23.80419922 C-122.33994629 24.27237061 -122.33994629 24.27237061 -123.5625 24.75 C-124.81691895 25.22783936 -124.81691895 25.22783936 -126.09667969 25.71533203 C-141.86859461 31.91965995 -156.91282847 40.60855232 -171 50 C-171 50.66 -171 51.32 -171 52 C-171.71671875 52.24492188 -172.4334375 52.48984375 -173.171875 52.7421875 C-176.35253673 54.1567912 -178.58555126 55.88904448 -181.25 58.125 C-182.20003906 58.92035156 -183.15007812 59.71570313 -184.12890625 60.53515625 C-188.13281177 63.97252276 -192.08361567 67.46351859 -196 71 C-193.66775077 80.03374535 -190.87257838 88.89830125 -187.9375 97.75 C-187.69966797 98.4691156 -187.46183594 99.1882312 -187.21679688 99.92913818 C-183.13601717 112.20446361 -178.42488157 124.08054808 -172.99194336 135.82763672 C-172.11476983 137.74865322 -171.28963578 139.69324669 -170.47265625 141.640625 C-164.00633236 156.39139037 -153.84499517 174.69018463 -139.5625 183 C-138.716875 183.66 -137.87125 184.32 -137 185 C-136.625 188.75 -136.625 188.75 -137 192 C-139.32938557 193.16469279 -140.61444568 193.10398565 -143.20483398 193.06591797 C-144.07950821 193.05631042 -144.95418243 193.04670288 -145.85536194 193.0368042 C-147.28627419 193.01471893 -147.28627419 193.01471893 -148.74609375 192.9921875 C-150.7882386 192.97178257 -152.83039446 192.95245648 -154.87255859 192.93408203 C-156.48115753 192.91840179 -156.48115753 192.91840179 -158.12225342 192.90240479 C-194.71005127 192.59995949 -229.49685775 194.70519459 -262 213 C-262.84838627 243.06550419 -260.74109978 276.51780043 -247 304 C-219.49703675 313.16765442 -177.60905464 300.10824367 -149.734375 295 C-148.85425751 294.83947144 -147.97414001 294.67894287 -147.06735229 294.5135498 C-142.40405186 293.65530971 -137.75435846 292.75124554 -133.11132812 291.7890625 C-132.15260803 291.59441406 -131.19388794 291.39976562 -130.20611572 291.19921875 C-128.37217335 290.82518658 -126.54040054 290.44030081 -124.71136475 290.04296875 C-123.88912415 289.87667969 -123.06688354 289.71039063 -122.21972656 289.5390625 C-121.4993219 289.38646973 -120.77891724 289.23387695 -120.03668213 289.07666016 C-117.51868531 288.98188345 -116.13850365 289.72683595 -114 291 C-114.41114669 294.4262224 -114.8653886 297.60080641 -115.97021484 300.87719727 C-119.43693839 311.38996654 -119.40565891 322.60186676 -119.375 333.5625 C-119.37368576 334.72475601 -119.37368576 334.72475601 -119.37234497 335.91049194 C-119.27987912 361.10119853 -115.77968815 385.73962098 -111.375 410.5 C-111.14730423 411.78277328 -111.14730423 411.78277328 -110.91500854 413.09146118 C-110.48093199 415.5106407 -110.0361434 417.92752522 -109.5859375 420.34375 C-109.45581772 421.0618132 -109.32569794 421.7798764 -109.19163513 422.5196991 C-108.25608669 427.51428448 -108.25608669 427.51428448 -106 432 C-94.30439361 436.64384371 -80.44380142 437.81179843 -68 439 C-67.25782227 439.07444336 -66.51564453 439.14888672 -65.75097656 439.22558594 C-62.13673701 439.43099833 -60.23738468 439.15344756 -57.171875 437.171875 C-56.37265625 436.37265625 -55.5734375 435.5734375 -54.75 434.75 C-53.94046875 433.96109375 -53.1309375 433.1721875 -52.296875 432.359375 C-51.53890625 431.58078125 -50.7809375 430.8021875 -50 430 C-49.24203125 429.28328125 -48.4840625 428.5665625 -47.703125 427.828125 C-45.77278349 426.17252951 -45.77278349 426.17252951 -46 424 C-45.01 423.67 -44.02 423.34 -43 423 C-41.08916034 420.84994071 -39.3130482 418.71160933 -37.5625 416.4375 C-37.06387451 415.79417725 -36.56524902 415.15085449 -36.05151367 414.48803711 C-33.30712572 410.886909 -30.82432007 407.38575675 -29.0078125 403.21484375 C-27.88091722 400.73829482 -26.56399451 398.39153574 -25.23608398 396.01831055 C-12.14442949 372.3801777 -6.89393915 347.77656005 -8.16015625 320.76171875 C-8.50822164 312.88116127 -8.50822164 312.88116127 -6.9140625 310.1171875 C-4.39825488 307.68124679 -1.86724868 306.97155329 1.5 306.25 C5.64624325 307.1384807 6.54782979 308.62002244 9.0546875 311.875 C29.56764467 334.28272831 71.74758318 339.63467963 100.19433594 341.77685547 C102.27747894 341.94253531 104.35868656 342.13293596 106.43847656 342.33642578 C110.20652436 342.69545209 113.97469998 342.97880689 117.75 343.25 C118.95285645 343.3739917 120.15571289 343.4979834 121.39501953 343.62573242 C124.85966207 343.82814177 127.63523969 343.86319734 131 343 C134.22905504 340.10133561 136.07149834 336.85265169 138 333 C138.92232422 331.41832031 138.92232422 331.41832031 139.86328125 329.8046875 C143.58753735 322.27586788 146.93484939 314.61804081 150.1875 306.875 C150.81168823 305.39169189 150.81168823 305.39169189 151.44848633 303.87841797 C155.65882377 293.69774617 159.10330708 283.41298995 161.625 272.6875 C161.82867187 271.86572266 162.03234375 271.04394531 162.2421875 270.19726562 C165.5425465 256.329411 166.34927462 242.73001732 166.31567383 228.54052734 C166.3125199 225.76750072 166.33604859 222.99555163 166.36132812 220.22265625 C166.45452765 193.71503421 161.16186973 165.52322896 148.89746094 141.81616211 C147.65725244 139.30639306 146.77762614 136.70996644 145.875 134.0625 C140.92241395 120.95181975 132.795859 107.90004078 124 97 C123.34 97 122.68 97 122 97 C121 95 120 93 119 91 C118.34 91 117.68 91 117 91 C116.5978125 89.8553125 116.5978125 89.8553125 116.1875 88.6875 C115.04865495 86.11011382 114.18583329 84.73045136 112 83 C111.34 83 110.68 83 110 83 C109.731875 82.236875 109.46375 81.47375 109.1875 80.6875 C108.04865495 78.11011382 107.18583329 76.73045136 105 75 C104.34 75 103.68 75 103 75 C103 74.34 103 73.68 103 73 C102.34 73 101.68 73 101 73 C101 72.34 101 71.68 101 71 C100.34 71 99.68 71 99 71 C99 70.34 99 69.68 99 69 C95.55581248 65.74922258 91.73002329 62.91564634 88 60 C87.31470215 59.46246094 86.6294043 58.92492187 85.92333984 58.37109375 C83.70446778 56.63591702 81.47870569 54.91002425 79.25 53.1875 C78.18761108 52.36125122 78.18761108 52.36125122 77.10375977 51.51831055 C75.09230367 49.97673511 73.06017827 48.47571243 71 47 C70.38576172 46.5560791 69.77152344 46.1121582 69.13867188 45.65478516 C67.17144847 44.29615876 67.17144847 44.29615876 64 43 C59.07668404 44.08191599 55.51063243 46.51222651 51.6484375 49.62109375 C51.04953705 50.09816269 50.4506366 50.57523163 49.83358765 51.0667572 C42.67835166 56.89800461 36.17999335 63.40435837 29.69921875 69.96459961 C27.58776627 72.10015884 25.46274613 74.22154048 23.3359375 76.34179688 C21.98617772 77.69711898 20.63718842 79.05320895 19.2890625 80.41015625 C18.6548941 81.04341324 18.02072571 81.67667023 17.36734009 82.32911682 C14.12595056 85.14779237 14.12595056 85.14779237 13 89 C12.34 89 11.68 89 11 89 C9.39365985 90.73391951 7.8624713 92.538091 6.375 94.375 C5.55773437 95.37273437 4.74046875 96.37046875 3.8984375 97.3984375 C1.80351031 99.73249885 1.80351031 99.73249885 2 102 C0.515 102.495 0.515 102.495 -1 103 C-2.43802182 104.5910643 -3.80325335 106.2486015 -5.125 107.9375 C-8.88005009 112.64960019 -12.79286878 117.13355302 -16.87109375 121.56640625 C-18.9756212 123.97213213 -20.82299107 126.46857878 -22.6875 129.0625 C-25.0206494 132.15882911 -25.60165887 132.87687638 -29.4375 134.0625 C-30.283125 134.041875 -31.12875 134.02125 -32 134 C-35.61897356 125.22550544 -35.61897356 125.22550544 -36.95703125 120.921875 C-41.76926671 105.71016442 -50.78737273 92.23036023 -60.71875 79.86328125 C-62.85298439 77.18452473 -64.80359374 74.44151583 -66.75 71.625 C-71.25820893 65.33942739 -76.5898076 59.86232893 -81.92578125 54.28515625 C-83.70940853 52.42028715 -85.2604795 50.64531658 -86.79296875 48.55859375 C-87.19128906 48.04425781 -87.58960938 47.52992187 -88 47 C-88.66 47 -89.32 47 -90 47 C-90.268125 46.360625 -90.53625 45.72125 -90.8125 45.0625 C-91.88667752 42.66868314 -91.88667752 42.66868314 -95 42 C-95 41.34 -95 40.68 -95 40 C-95.66 40 -96.32 40 -97 40 C-97 39.34 -97 38.68 -97 38 C-97.66 38 -98.32 38 -99 38 C-99.33 37.01 -99.66 36.02 -100 35 C-100.66 35 -101.32 35 -102 35 C-102.26039063 34.41476563 -102.52078125 33.82953125 -102.7890625 33.2265625 C-104.07650775 30.85932446 -105.46564527 29.26767914 -107.375 27.375 C-107.96023437 26.78460938 -108.54546875 26.19421875 -109.1484375 25.5859375 C-112.45989431 22.749542 -114.65141196 21.43271433 -118.87890625 22.984375 Z M-205 80 C-221.54802063 98.51383159 -236.22434591 118.69774303 -244.88671875 142.1171875 C-246 145 -246 145 -247.20703125 147.1953125 C-248.31590911 149.17084435 -248.31590911 149.17084435 -247 152 C-246.59910156 151.12859375 -246.19820312 150.2571875 -245.78515625 149.359375 C-239.25797253 135.68337102 -230.35186437 122.59302108 -218.4375 113 C-217.633125 112.34 -216.82875 111.68 -216 111 C-216 110.34 -216 109.68 -216 109 C-212.6875 108.6875 -212.6875 108.6875 -209 109 C-207.53125 111.03125 -207.53125 111.03125 -206 114 C-205.34065321 115.21528327 -204.68043223 116.43009249 -204.01953125 117.64453125 C-203.28187513 119.03280442 -202.54630304 120.42218636 -201.8125 121.8125 C-201.41667725 122.56096191 -201.02085449 123.30942383 -200.61303711 124.08056641 C-197.69668485 129.6197136 -194.87335891 135.20010324 -192.10644531 140.81518555 C-190.23925304 144.58533473 -188.30940226 148.31233027 -186.3125 152.015625 C-185.85609131 152.86527832 -185.39968262 153.71493164 -184.92944336 154.59033203 C-184.03917121 156.24112779 -183.14188379 157.88816555 -182.23657227 159.53076172 C-180.00676014 163.6724092 -178.28402378 167.20800906 -178 172 C-178.33 172.66 -178.66 173.32 -179 174 C-182.00968278 174.33303867 -184.9804375 174.56195571 -188 174.75 C-207.19755651 176.28401346 -225.6618587 181.72221043 -243.73046875 188.19482422 C-245.86389885 188.95171454 -248.00655454 189.66981981 -250.15625 190.37890625 C-251.3421875 190.79011719 -252.528125 191.20132813 -253.75 191.625 C-254.75546875 191.96789062 -255.7609375 192.31078125 -256.796875 192.6640625 C-259.26730233 193.82994593 -259.26730233 193.82994593 -259.828125 196.6484375 C-259.88484375 197.42445313 -259.9415625 198.20046875 -260 199 C-255.61362679 197.55320586 -251.23453278 196.09452563 -246.88671875 194.53515625 C-238.97681357 191.73548832 -231.10820547 189.3976032 -222.875 187.75 C-221.75097778 187.52389038 -221.75097778 187.52389038 -220.60424805 187.29321289 C-205.81223228 184.5025332 -191.00678674 183.53913706 -176 182.875 C-174.14580671 182.78832815 -172.29163972 182.70109174 -170.4375 182.61328125 C-165.95860872 182.4023686 -161.47943505 182.1990149 -157 182 C-157.38019287 181.50226074 -157.76038574 181.00452148 -158.15209961 180.49169922 C-161.45518708 176.13333696 -164.61605954 171.73182535 -167.5625 167.125 C-167.95107178 166.51769043 -168.33964355 165.91038086 -168.73999023 165.28466797 C-171.31246727 161.21027791 -173.63024338 157.09238294 -175.6953125 152.734375 C-176.71634969 150.5944767 -177.77257517 148.49271633 -178.8671875 146.390625 C-183.0526742 138.30448057 -186.62054292 130.19904762 -189.67578125 121.62109375 C-190.99340949 118.01802183 -192.48812582 114.52498966 -194 111 C-194.65081408 109.17567077 -195.27679769 107.34225137 -195.875 105.5 C-196.21015625 104.4790625 -196.5453125 103.458125 -196.890625 102.40625 C-197.25671875 101.2821875 -197.6228125 100.158125 -198 99 C-198.87062257 96.33187669 -199.74665561 93.66558994 -200.625 91 C-201.02976563 89.7625 -201.43453125 88.525 -201.8515625 87.25 C-202.75566447 84.69145293 -203.70545034 82.37532048 -205 80 Z M-214 122 C-214.33 122.99 -214.66 123.98 -215 125 C-215.66 125 -216.32 125 -217 125 C-217 125.66 -217 126.32 -217 127 C-217.66 127 -218.32 127 -219 127 C-226.85910469 135.28303979 -234.38805436 145.16416307 -238 156 C-233.38 156 -228.76 156 -224 156 C-224.66 154.02 -225.32 152.04 -226 150 C-226.75 147.3125 -226.75 147.3125 -227 145 C-226.34 144.01 -225.68 143.02 -225 142 C-221.375 141.8125 -221.375 141.8125 -218 142 C-217.773125 142.763125 -217.54625 143.52625 -217.3125 144.3125 C-215.84046477 148.44821804 -213.97608228 152.29088651 -212.0234375 156.21875 C-210.88317277 159.31748468 -210.81693772 161.72414868 -211 165 C-223.33173224 166.19684056 -235.62367928 166.10396237 -248 166 C-249.07525194 163.34771188 -250.09456151 160.71631546 -251 158 C-252.00906461 161.24725579 -253.00565122 164.49821074 -254 167.75 C-254.28617188 168.67039063 -254.57234375 169.59078125 -254.8671875 170.5390625 C-255.13789063 171.42851562 -255.40859375 172.31796875 -255.6875 173.234375 C-255.93886719 174.05131836 -256.19023437 174.86826172 -256.44921875 175.70996094 C-257.15589558 178.25562575 -257.15589558 178.25562575 -257 182 C-252.35260762 180.66883736 -247.73603138 179.27052729 -243.171875 177.67578125 C-226.27623834 171.79715493 -208.84476248 166.82217645 -191 165 C-194.90535248 157.07945699 -198.92547854 149.25288848 -203.1472168 141.49707031 C-205.78777447 136.57147681 -207.93637266 131.53121971 -209.89453125 126.29296875 C-210.90796528 123.69403408 -210.90796528 123.69403408 -214 122 Z M-249 152 C-249.33 153.98 -249.66 155.96 -250 158 C-249.34 157.34 -248.68 156.68 -248 156 C-248.3185177 153.89179203 -248.3185177 153.89179203 -249 152 Z M-133.20141602 301.76269531 C-134.07693115 301.93009216 -134.95244629 302.09748901 -135.85449219 302.2699585 C-136.81129883 302.45415344 -137.76810547 302.63834839 -138.75390625 302.828125 C-178.57782762 310.39235078 -178.57782762 310.39235078 -196.5625 312.5 C-198.4343396 312.72091309 -198.4343396 312.72091309 -200.34399414 312.94628906 C-212.00666929 314.23484252 -223.75995264 315.17538507 -235.5 315.0625 C-236.7478125 315.05347656 -237.995625 315.04445313 -239.28125 315.03515625 C-240.1784375 315.02355469 -241.075625 315.01195312 -242 315 C-240.54130741 319.95955479 -238.42718822 324.16958546 -235.875 328.625 C-235.47611572 329.3257666 -235.07723145 330.0265332 -234.66625977 330.74853516 C-228.17384401 342.03085954 -220.67230252 352.20543896 -212.34375 362.18359375 C-211.89241699 362.72435547 -211.44108398 363.26511719 -210.97607422 363.82226562 C-209.68796662 365.36222224 -208.39488959 366.89801809 -207.1015625 368.43359375 C-205 371 -205 371 -203 374 C-202.34 374 -201.68 374 -201 374 C-201 374.66 -201 375.32 -201 376 C-199.55316948 377.50273886 -199.55316948 377.50273886 -197.625 379.0625 C-194.43209456 381.76806724 -191.32386906 384.53490416 -188.25 387.375 C-178.61849106 396.03748518 -168.01330818 403.23153916 -157 410 C-156.37174316 410.39106934 -155.74348633 410.78213867 -155.09619141 411.18505859 C-153.43430101 412.1871755 -151.71998921 413.10124803 -150 414 C-149.34 413.67 -148.68 413.34 -148 413 C-148.12117188 412.25621094 -148.24234375 411.51242187 -148.3671875 410.74609375 C-151.50402862 390.30836738 -152.40153711 369.70186273 -153.125 349.0625 C-153.21171677 346.71026713 -153.29895397 344.35805338 -153.38671875 342.00585938 C-153.59711413 336.33744484 -153.80120604 330.66883267 -154 325 C-162.92669299 326.3536827 -162.92669299 326.3536827 -171.8359375 327.81640625 C-184.53964876 329.93506811 -197.13285929 330.68304947 -210 331 C-206.24655111 337.03067815 -202.25631168 342.15756972 -197.125 347.0625 C-196.53203125 347.64193359 -195.9390625 348.22136719 -195.328125 348.81835938 C-193.89235881 350.21938929 -192.44719503 351.61077866 -191 353 C-190.34 352.67 -189.68 352.34 -189 352 C-189.5053125 351.40832031 -190.010625 350.81664062 -190.53125 350.20703125 C-191.1809375 349.41683594 -191.830625 348.62664062 -192.5 347.8125 C-193.1496875 347.03519531 -193.799375 346.25789063 -194.46875 345.45703125 C-196.21508151 342.65488196 -196.47927094 341.24052508 -196 338 C-191.67683142 333.67683142 -181.73387372 334.10629886 -175.78515625 333.875 C-173.51898786 333.875 -171.26441651 333.92395505 -169 334 C-166.75498544 341.26369544 -164.74423675 348.56857421 -162.875 355.9375 C-162.61074219 356.94490234 -162.34648437 357.95230469 -162.07421875 358.99023438 C-160.38489778 365.65747832 -159.40759303 372.13434058 -159 379 C-165.36492761 379.40400988 -169.29990365 378.44337076 -174.875 375.4375 C-175.91164795 374.90092773 -175.91164795 374.90092773 -176.96923828 374.35351562 C-181.98949891 371.69759048 -186.65246604 368.68761901 -191.1796875 365.25 C-192.90675464 363.81130724 -192.90675464 363.81130724 -195 364 C-195 363.34 -195 362.68 -195 362 C-198.05558423 358.97482091 -198.05558423 358.97482091 -202 358 C-202.268125 357.360625 -202.53625 356.72125 -202.8125 356.0625 C-203.88667752 353.66868314 -203.88667752 353.66868314 -207 353 C-208.1875 350.4375 -208.1875 350.4375 -209 348 C-209.66 348 -210.32 348 -211 348 C-211.268125 347.4225 -211.53625 346.845 -211.8125 346.25 C-213.02929189 343.94449957 -214.30333879 341.97943808 -216 340 C-216.66 340 -217.32 340 -218 340 C-218.25394531 339.44183594 -218.50789063 338.88367188 -218.76953125 338.30859375 C-220.65813805 334.76520765 -223.1887997 331.70911141 -225.63671875 328.53515625 C-227 326 -227 326 -226.76953125 323.24609375 C-226 321 -226 321 -225 320 C-223.48565446 320.00776685 -221.97159502 320.08549773 -220.4609375 320.19140625 C-199.06661574 321.50803509 -179.37741502 319.64473951 -158.44140625 315.12109375 C-153.96776211 314.16195565 -149.54875511 313.48252587 -145 313 C-142.54451286 316.68323071 -143.18860179 318.40415284 -143.703125 322.63671875 C-145.8260102 346.68677341 -142.83470722 371.46965592 -140.4375 395.375 C-140.20064678 397.77989626 -139.96431591 400.18484402 -139.72851562 402.58984375 C-139.15833817 408.39383418 -138.58181572 414.19716527 -138 420 C-135.79296628 420.96142017 -133.58446467 421.91919537 -131.375 422.875 C-130.75753906 423.14441406 -130.14007813 423.41382813 -129.50390625 423.69140625 C-125.72044933 425.3242666 -121.92785967 426.75517063 -118 428 C-118.17015625 427.07445312 -118.3403125 426.14890625 -118.515625 425.1953125 C-124.01819045 394.89060031 -129.33452606 363.9461424 -129.375 333.0625 C-129.37661133 331.92772217 -129.37822266 330.79294434 -129.37988281 329.6237793 C-129.29023389 322.94045224 -128.60095 316.55013995 -127.42431641 309.97045898 C-126.99129661 306.93907124 -126.92880352 304.05774621 -127 301 C-129.17457033 301 -131.06473458 301.35063918 -133.20141602 301.76269531 Z M2 320 C1.99589111 320.72775635 1.99178223 321.4555127 1.98754883 322.20532227 C1.77264075 344.11391119 -0.55372089 364.6327067 -9 385 C-9.36609375 385.89976562 -9.7321875 386.79953125 -10.109375 387.7265625 C-15.31966215 399.82442103 -22.09360607 411.47657125 -30 422 C-30.56332031 422.76699219 -31.12664062 423.53398437 -31.70703125 424.32421875 C-35.7265651 429.66847482 -40.16249638 434.38866538 -45 439 C-19.06689294 447.64436902 23.6655389 429.08484415 46.65136719 417.68505859 C56.52318649 412.73873929 66.26140566 407.80659219 75 401 C75.98484375 400.26523437 76.9696875 399.53046875 77.984375 398.7734375 C95.83132614 385.38957496 110.65745265 370.93371311 124 353 C122.90051025 352.93268677 122.90051025 352.93268677 121.77880859 352.86401367 C92.54751338 351.03335308 62.59144337 348.55064843 35 338 C33.47439453 337.43345703 33.47439453 337.43345703 31.91796875 336.85546875 C21.15421165 332.63743025 11.32244035 326.80573592 2 320 Z M-181 344 C-179.79618552 346.49361571 -178.54571278 348.68143083 -177 351 C-176.875 354.1875 -176.875 354.1875 -177 357 C-178.65 357.66 -180.3 358.32 -182 359 C-178.77588233 361.76352943 -175.96479572 363.52069807 -172 365 C-172.0644615 353.81802595 -172.0644615 353.81802595 -176 344 C-177.66617115 343.95936168 -179.33388095 343.957279 -181 344 Z " fill="#FCFCFC" transform="translate(328,70)"/>
<path d="M0 0 C0 16.17 0 32.34 0 49 C-15.51 49 -31.02 49 -47 49 C-45.86220425 44.44881699 -44.46006283 43.03810395 -41 40 C-40.34 40 -39.68 40 -39 40 C-38.62488281 39.14341797 -38.62488281 39.14341797 -38.2421875 38.26953125 C-36.82197066 35.67473255 -35.18197351 33.8104519 -33.125 31.6875 C-32.44695312 30.96949219 -31.76890625 30.25148437 -31.0703125 29.51171875 C-29 28 -29 28 -26.8828125 28.15625 C-24.26306986 29.33024255 -22.78768168 30.7653979 -21 33 C-21 34.32 -21 35.64 -21 37 C-17.37 37.33 -13.74 37.66 -10 38 C-10 30.08 -10 22.16 -10 14 C-32.22338823 24.63683539 -45.84395941 36.68791883 -57 59 C-34.23 59.33 -11.46 59.66 12 60 C12 40.53 12 21.06 12 1 C15.3 1 18.6 1 22 1 C22 20.47 22 39.94 22 60 C43.78 59.67 65.56 59.34 88 59 C83.8069218 50.50436587 83.8069218 50.50436587 78.6875 43 C75 38.20147874 75 38.20147874 75 36 C74.34 36 73.68 36 73 36 C70.375 33.625 70.375 33.625 68 31 C68 30.34 68 29.68 68 29 C67.34 29 66.68 29 66 29 C66 28.34 66 27.68 66 27 C65.26523437 26.73058594 64.53046875 26.46117187 63.7734375 26.18359375 C60.32308537 24.71111953 57.52217004 22.70030634 54.4765625 20.53515625 C51.36752452 18.52255467 51.36752452 18.52255467 45 16 C45 23.92 45 31.84 45 40 C48.465 39.505 48.465 39.505 52 39 C52 38.34 52 37.68 52 37 C51.34 37 50.68 37 50 37 C50.35052635 33.84526281 50.86519076 32.1766466 52.8125 29.625 C55 28 55 28 56.80859375 28.08984375 C59.97544955 29.40513324 61.85882268 31.50087633 64.25 33.9375 C65.14203125 34.83339844 66.0340625 35.72929687 66.953125 36.65234375 C69 39 69 39 69 41 C69.66 41 70.32 41 71 41 C71 41.66 71 42.32 71 43 C71.61875 43.28875 72.2375 43.5775 72.875 43.875 C75 45 75 45 77 47 C77 48.32 77 49.64 77 51 C63.14 50.67 49.28 50.34 35 50 C35 33.83 35 17.66 35 1 C41.15126111 2.36694691 46.30856456 3.66804107 51.9375 6.1875 C52.63133789 6.49719727 53.32517578 6.80689453 54.04003906 7.12597656 C75.1389855 16.82539907 90.73892918 35.15326695 99.390625 56.41796875 C101.26771612 61.73859675 102 65.21354368 102 71 C75.6 71 49.2 71 22 71 C22 74.63 22 78.26 22 82 C48.73 82 75.46 82 103 82 C103 85.3 103 88.6 103 92 C76.27 92 49.54 92 22 92 C22 96.62 22 101.24 22 106 C48.4 106 74.8 106 102 106 C97.11098326 128.00057535 83.10511413 149.51418492 64 162 C41.30952835 174.81046597 16.73719725 180.61482829 -9.08105469 173.91357422 C-19.5263723 170.86852475 -30.19431014 166.42081552 -39 160 C-39 159.34 -39 158.68 -39 158 C-39.598125 157.71125 -40.19625 157.4225 -40.8125 157.125 C-43 156 -43 156 -46 154 C-46 153.34 -46 152.68 -46 152 C-46.66 152 -47.32 152 -48 152 C-48 151.34 -48 150.68 -48 150 C-48.66 150 -49.32 150 -50 150 C-56.33900626 143.44546753 -60.9509092 136.11060213 -65 128 C-65.37898437 127.31292969 -65.75796875 126.62585938 -66.1484375 125.91796875 C-69.41961747 119.87981323 -72 112.91875475 -72 106 C-44.28 106 -16.56 106 12 106 C12 101.38 12 96.76 12 92 C-14.73 92 -41.46 92 -69 92 C-69 88.7 -69 85.4 -69 82 C-42.27 82 -15.54 82 12 82 C12 78.37 12 74.74 12 71 C-15.72 71 -43.44 71 -72 71 C-67.92560234 50.62801169 -58.25857349 34.1508082 -43 20 C-42.18982422 19.23429687 -42.18982422 19.23429687 -41.36328125 18.453125 C-31.33896141 9.38684039 -13.90307564 0 0 0 Z M-58 116 C-54.71491134 127.4978103 -48.17028738 135.45621377 -40 144 C-39.195625 144.886875 -38.39125 145.77375 -37.5625 146.6875 C-31.20780711 152.42222285 -19.18949155 162 -10 162 C-10 153.75 -10 145.5 -10 137 C-14.29 137 -18.58 137 -23 137 C-22.505 139.475 -22.505 139.475 -22 142 C-23.5625 144.375 -23.5625 144.375 -26 146 C-29.125 146 -29.125 146 -32 145 C-33.0625 143.25 -33.0625 143.25 -34 141 C-35.6222454 139.29006566 -37.29413425 137.62652316 -39 136 C-39.886875 135.071875 -40.77375 134.14375 -41.6875 133.1875 C-43.71162149 130.77093338 -43.71162149 130.77093338 -46 131 C-46.33 129.35 -46.66 127.7 -47 126 C-31.82 126.33 -16.64 126.66 -1 127 C-0.67 139.54 -0.34 152.08 0 165 C3.96 165.33 7.92 165.66 12 166 C12 149.5 12 133 12 116 C-11.1 116 -34.2 116 -58 116 Z M22 116 C22 132.17 22 148.34 22 165 C28.94729537 165.36893239 28.94729537 165.36893239 35 163 C35 150.46 35 137.92 35 125 C48.86 125 62.72 125 77 125 C74.7295811 128.7840315 73.36369266 130.84099951 70.3125 133.6875 C68.46034321 135.37212664 68.46034321 135.37212664 67 137 C67 137.66 67 138.32 67 139 C66.443125 139.226875 65.88625 139.45375 65.3125 139.6875 C62.79056182 140.97730663 62.79056182 140.97730663 60.5 143.5625 C58.13972998 145.86376327 57.18403225 146.64621864 54 147 C54 146.34 54 145.68 54 145 C53.34 145 52.68 145 52 145 C51.375 142.1875 51.375 142.1875 51 139 C51.66 138.01 52.32 137.02 53 136 C50.36 136 47.72 136 45 136 C45 143.59 45 151.18 45 159 C49.62922808 157.45692397 52.59244195 156.23443625 56.5625 153.6875 C57.47128906 153.11386719 58.38007813 152.54023438 59.31640625 151.94921875 C62.19589078 149.85771543 64.53294975 147.56103312 67 145 C67.79019531 144.25621094 68.58039063 143.51242187 69.39453125 142.74609375 C76.51569855 135.94704711 83.10203432 128.16021934 87 119 C87 118.01 87 117.02 87 116 C65.55 116 44.1 116 22 116 Z " fill="#FBFBFB" transform="translate(265,208)"/>
<path d="M0 0 C7.58682719 6.4396255 11.35064735 12.87768255 12.375 22.8125 C12.49014916 24.31169691 12.59830333 25.81153543 12.6875 27.3125 C13.47125 27.10625 14.255 26.9 15.0625 26.6875 C21.51864815 26.01962261 28.50834608 27.16917687 33.6875 31.3125 C33.6875 31.9725 33.6875 32.6325 33.6875 33.3125 C34.3475 33.3125 35.0075 33.3125 35.6875 33.3125 C36.33584654 34.582053 36.98107815 35.85319706 37.625 37.125 C38.16447266 38.18654297 38.16447266 38.18654297 38.71484375 39.26953125 C41.74518542 45.63446576 41.74582251 53.19323367 39.5 59.8125 C37.36962069 62.75095422 35.86982633 64.51379381 32.6875 66.3125 C27.67738455 67.04124407 23.23505422 66.65962476 18.6875 64.3125 C18.6875 63.6525 18.6875 62.9925 18.6875 62.3125 C18.089375 62.085625 17.49125 61.85875 16.875 61.625 C13.88706265 59.83223759 13.03752526 58.55256063 11.6875 55.3125 C10.98274253 50.22635877 11.16192977 46.42203715 13.375 41.75 C15.6875 39.3125 15.6875 39.3125 18.1875 38.25 C20.6875 38.3125 20.6875 38.3125 23 39.4375 C24.6875 41.3125 24.6875 41.3125 25 43.9375 C24.6875 46.3125 24.6875 46.3125 23.6875 47.3125 C23.64657063 49.64547433 23.64508277 51.97955225 23.6875 54.3125 C25.9975 54.6425 28.3075 54.9725 30.6875 55.3125 C30.63973395 47.74455084 30.63973395 47.74455084 27.3125 41.1875 C22.5799284 37.80709172 18.28332081 37.965771 12.6875 38.3125 C5.55715174 39.59596269 1.61942583 44.93474513 -2.75 50.3125 C-4.7717896 52.6794732 -6.62476055 54.51376223 -8.97265625 56.50610352 C-13.27526849 60.231484 -17.30477833 64.1767273 -21.3125 68.21484375 C-22.0336499 68.9374086 -22.7547998 69.65997345 -23.49780273 70.4044342 C-25.77175415 72.68392604 -28.04217954 74.9668924 -30.3125 77.25 C-31.86565235 78.80817506 -33.41903567 80.36611993 -34.97265625 81.92382812 C-38.75527586 85.71739759 -42.5350169 89.51381615 -46.3125 93.3125 C-45.89976837 93.86135864 -45.48703674 94.41021729 -45.0617981 94.97570801 C-44.52078461 95.6959314 -43.97977112 96.41615479 -43.42236328 97.15820312 C-42.88588165 97.87206177 -42.34940002 98.58592041 -41.79666138 99.32141113 C-30.3125 114.72808201 -30.3125 114.72808201 -30.3125 120.3125 C-28.58222464 119.06403512 -26.85333043 117.81365598 -25.125 116.5625 C-24.16207031 115.86640625 -23.19914062 115.1703125 -22.20703125 114.453125 C-19.52120786 112.46684805 -16.90583207 110.41750812 -14.3125 108.3125 C-14.99957031 107.961875 -15.68664062 107.61125 -16.39453125 107.25 C-20.18076498 104.73598135 -22.96385987 101.6684148 -26 98.3125 C-26.58072266 97.6834375 -27.16144531 97.054375 -27.75976562 96.40625 C-34.08292986 89.50559447 -34.08292986 89.50559447 -34.84765625 85.53125 C-34.05538596 80.7660623 -31.32106219 78.85893806 -27.75 75.8125 C-27.14091797 75.26980469 -26.53183594 74.72710937 -25.90429688 74.16796875 C-24.05676114 72.52962489 -22.18546862 70.9216497 -20.3125 69.3125 C-19.66684082 68.73757812 -19.02118164 68.16265625 -18.35595703 67.5703125 C-17.73446777 67.02117187 -17.11297852 66.47203125 -16.47265625 65.90625 C-15.91328369 65.40802734 -15.35391113 64.90980469 -14.77758789 64.39648438 C-13.3125 63.3125 -13.3125 63.3125 -11.3125 63.3125 C-11.3125 62.6525 -11.3125 61.9925 -11.3125 61.3125 C-8.08149377 57.68786865 -4.90017864 54.68607144 -0.125 53.5625 C3.62233883 54.56179035 5.01548165 56.52403992 7.6875 59.3125 C9.45178881 61.01185792 11.21883549 62.70835613 12.98828125 64.40234375 C14.48252042 65.85239881 15.97391974 67.30530748 17.46411133 68.75952148 C18.4917667 69.75679315 19.52471038 70.74864291 20.56274414 71.73510742 C22.07313222 73.17263112 23.56320417 74.62877299 25.05078125 76.08984375 C25.94063721 76.94827881 26.83049316 77.80671387 27.74731445 78.69116211 C29.6875 81.3125 29.6875 81.3125 30.12426758 84.47607422 C29.49971799 88.53198094 27.16231981 90.13451072 24.0625 92.5 C23.48145508 92.96704346 22.90041016 93.43408691 22.30175781 93.9152832 C20.44477745 95.40042039 18.56852102 96.85797269 16.6875 98.3125 C15.46545482 99.26995202 14.24409116 100.22827458 13.0234375 101.1875 C11.23041742 102.59525912 9.4361194 104.0010723 7.63574219 105.39941406 C4.41520327 107.90946083 1.31943303 110.48316428 -1.6875 113.25 C-8.12878792 119.12690841 -15.29868898 124.14895814 -22.3125 129.3125 C-11.45522684 126.44004091 -3.51730607 121.67368155 5.40234375 114.88671875 C7.6875 113.3125 7.6875 113.3125 9.6875 113.3125 C9.6875 112.6525 9.6875 111.9925 9.6875 111.3125 C10.3475 111.3125 11.0075 111.3125 11.6875 111.3125 C11.6875 110.6525 11.6875 109.9925 11.6875 109.3125 C12.491875 108.673125 13.29625 108.03375 14.125 107.375 C27.70910694 96.3677377 36.12000082 78.80704162 43.97265625 63.56640625 C45.6875 60.3125 45.6875 60.3125 46.6875 59.3125 C49.625 59.125 49.625 59.125 52.6875 59.3125 C54.6875 61.3125 54.6875 61.3125 55.02734375 63.96875 C54.60990857 68.07592836 53.14487308 71.21514686 51.25 74.8125 C50.89164063 75.50883545 50.53328125 76.2051709 50.1640625 76.92260742 C44.33951165 88.02376803 37.25642428 98.33223702 29.6875 108.3125 C29.03007812 109.18648437 29.03007812 109.18648437 28.359375 110.078125 C21.2090328 119.13522512 9.80828974 129.19405896 -1.3125 132.3125 C-1.3125 132.9725 -1.3125 133.6325 -1.3125 134.3125 C-2.9625 134.9725 -4.6125 135.6325 -6.3125 136.3125 C-4.21699079 138.40800921 -2.8322339 139.05842374 -0.12109375 140.16015625 C1.15930786 140.68959839 1.15930786 140.68959839 2.46557617 141.22973633 C3.84386597 141.79664185 3.84386597 141.79664185 5.25 142.375 C21.88395454 149.39017106 36.96504322 157.85827487 51.6875 168.3125 C52.30189941 168.74755859 52.91629883 169.18261719 53.54931641 169.63085938 C61.46238144 175.32244225 68.53122412 181.81959771 75.5 188.625 C76.29599609 189.39021973 77.09199219 190.15543945 77.91210938 190.94384766 C83.38294477 196.41348646 83.38294477 196.41348646 84.82421875 200.66796875 C84.6875 203.3125 84.6875 203.3125 82.6875 206.3125 C79.64818783 206.94863511 77.66329364 206.92349006 74.984375 205.24609375 C71.76448098 202.58460478 69.02415272 199.60631357 66.3125 196.4375 C48.43816928 175.603843 19.34118386 159.29444091 -6.3125 150.3125 C-7.46492188 149.89355469 -8.61734375 149.47460938 -9.8046875 149.04296875 C-17.26617302 146.3408334 -24.77192272 143.78459402 -32.3125 141.3125 C-32.6425 139.3325 -32.9725 137.3525 -33.3125 135.3125 C-34.6325 134.9825 -35.9525 134.6525 -37.3125 134.3125 C-37.52003906 133.42949219 -37.72757812 132.54648437 -37.94140625 131.63671875 C-41.11127263 119.28882919 -46.49951908 109.74940773 -56.3125 101.3125 C-57.3025 100.8175 -57.3025 100.8175 -58.3125 100.3125 C-58.3125 99.6525 -58.3125 98.9925 -58.3125 98.3125 C-58.86550781 98.05082031 -59.41851562 97.78914063 -59.98828125 97.51953125 C-62.6057415 96.16021156 -65.02803339 94.60874018 -67.5 93 C-72.33957645 89.89572985 -77.25692577 87.04572564 -82.3125 84.3125 C-83.98058214 83.39841164 -85.64727722 82.48178703 -87.3125 81.5625 C-88.055 81.15515625 -88.7975 80.7478125 -89.5625 80.328125 C-91.3125 79.3125 -91.3125 79.3125 -92.3125 78.3125 C-92.15355198 71.77053398 -89.50394259 68.18888284 -85.5 63.1875 C-84.96568359 62.49785156 -84.43136719 61.80820313 -83.88085938 61.09765625 C-81.689569 58.27835769 -79.46675559 55.49692991 -77.17578125 52.7578125 C-75.31587518 50.31692948 -73.85231484 47.7772295 -72.36621094 45.09716797 C-70.63550159 42.16586923 -68.54819746 39.53930974 -66.4375 36.875 C-65.55435214 35.74375132 -64.67153882 34.61224137 -63.7890625 33.48046875 C-63.15339355 32.66908447 -63.15339355 32.66908447 -62.50488281 31.84130859 C-60.91813039 29.80686067 -59.36113126 27.75107022 -57.8125 25.6875 C-57.14734375 24.80191406 -57.14734375 24.80191406 -56.46875 23.8984375 C-55.37552133 22.39894142 -54.34185939 20.85653908 -53.3125 19.3125 C-49.70122352 18.75768112 -47.98413073 18.8215618 -45.00390625 21 C-44.30136719 21.763125 -43.59882813 22.52625 -42.875 23.3125 C-42.111875 24.13105469 -41.34875 24.94960937 -40.5625 25.79296875 C-39.82 26.62441406 -39.0775 27.45585937 -38.3125 28.3125 C-37.2915625 29.42044922 -37.2915625 29.42044922 -36.25 30.55078125 C-33.42261725 33.67857342 -31.07527541 36.45483207 -29.3125 40.3125 C-28.6525 40.3125 -27.9925 40.3125 -27.3125 40.3125 C-25.11651148 42.50848852 -24.36841409 43.98493663 -23.84375 47.05859375 C-24.52091909 51.75927585 -27.02115025 53.64494128 -30.4375 56.75 C-31.63600459 57.88603021 -32.83264389 59.02403174 -34.02734375 60.1640625 C-34.59952637 60.70450195 -35.17170898 61.24494141 -35.76123047 61.80175781 C-37.64582286 63.63711471 -39.33963133 65.58595075 -41 67.625 C-42.1446875 68.9553125 -42.1446875 68.9553125 -43.3125 70.3125 C-43.9725 70.3125 -44.6325 70.3125 -45.3125 70.3125 C-45.3125 70.9725 -45.3125 71.6325 -45.3125 72.3125 C-48.01006416 75.1735529 -49.62715044 76.2334212 -53.5625 76.6875 C-59.31501035 74.57824621 -62.87225244 70.30307372 -66.3125 65.3125 C-67.27734375 62.78515625 -67.27734375 62.78515625 -67.3125 60.3125 C-65.94921875 57.85546875 -65.94921875 57.85546875 -64 55.5 C-63.36449219 54.70980469 -62.72898437 53.91960937 -62.07421875 53.10546875 C-61.49285156 52.51378906 -60.91148437 51.92210937 -60.3125 51.3125 C-59.6525 51.3125 -58.9925 51.3125 -58.3125 51.3125 C-58.085625 50.755625 -57.85875 50.19875 -57.625 49.625 C-55.88454473 46.55848357 -54.04459236 44.5478483 -51.3125 42.3125 C-48.3125 41.6875 -48.3125 41.6875 -45.3125 42.3125 C-42.5625 44.75 -42.5625 44.75 -40.3125 47.3125 C-39.3225 47.8075 -39.3225 47.8075 -38.3125 48.3125 C-39.65252965 44.2712527 -41.32778739 42.00622118 -44.4375 39.125 C-45.76399136 37.89056053 -47.06500533 36.62672113 -48.3125 35.3125 C-48.3125 34.6525 -48.3125 33.9925 -48.3125 33.3125 C-48.9725 33.3125 -49.6325 33.3125 -50.3125 33.3125 C-50.58940674 33.89950684 -50.86631348 34.48651367 -51.15161133 35.09130859 C-52.25275093 37.19817885 -53.44564483 38.96626335 -54.88671875 40.8515625 C-55.38623047 41.50979004 -55.88574219 42.16801758 -56.40039062 42.84619141 C-57.19219727 43.88138916 -57.19219727 43.88138916 -58 44.9375 C-62.57313118 50.97354143 -67.0503466 57.05096566 -71.3125 63.3125 C-71.70953125 63.89386719 -72.1065625 64.47523438 -72.515625 65.07421875 C-74.55366473 68.09325522 -76.46582555 71.17315344 -78.3125 74.3125 C-77.796875 74.39757812 -77.28125 74.48265625 -76.75 74.5703125 C-73.32781899 75.61232274 -70.38390464 77.39477637 -67.3125 79.1875 C-66.38824219 79.71537109 -66.38824219 79.71537109 -65.4453125 80.25390625 C-62.84850001 81.75292462 -60.39643643 83.2445931 -58.0625 85.1328125 C-57.485 85.52210938 -56.9075 85.91140625 -56.3125 86.3125 C-55.3225 85.9825 -54.3325 85.6525 -53.3125 85.3125 C-53.3125 84.6525 -53.3125 83.9925 -53.3125 83.3125 C-52.6525 83.3125 -51.9925 83.3125 -51.3125 83.3125 C-51.3125 82.6525 -51.3125 81.9925 -51.3125 81.3125 C-49.84375 79.90234375 -49.84375 79.90234375 -47.8125 78.25 C-43.85281093 74.89516574 -40.45878106 71.2550411 -37.07421875 67.328125 C-33.98208461 63.7903396 -33.98208461 63.7903396 -32.3125 62.3125 C-31.6525 62.3125 -30.9925 62.3125 -30.3125 62.3125 C-30.3125 61.6525 -30.3125 60.9925 -30.3125 60.3125 C-28.96459961 58.98364258 -28.96459961 58.98364258 -27.02734375 57.39453125 C-21.88077794 53.01705771 -17.12755789 48.27844919 -12.36450195 43.49487305 C-10.85677904 41.98171334 -9.34368241 40.47407115 -7.83007812 38.96679688 C-6.86686608 38.00292526 -5.9039636 37.03874416 -4.94140625 36.07421875 C-3.6431189 34.7742395 -3.6431189 34.7742395 -2.31860352 33.44799805 C0.91927029 30.00128001 1.08719416 27.48911406 1.03515625 22.90234375 C0.41285541 18.26655213 -1.47365618 14.0205207 -4.3125 10.3125 C-9.03469333 7.76801719 -12.19907297 8.30657993 -17.3125 9.3125 C-19.59188458 11.14400795 -19.59188458 11.14400795 -19.4375 13.875 C-18.21779365 17.60188052 -16.93127744 18.96906446 -14.25 21.75 C-9.75723697 26.47500924 -9.75723697 26.47500924 -9.8125 30.375 C-9.9775 31.344375 -10.1425 32.31375 -10.3125 33.3125 C-13.16574437 34.73912219 -15.14704549 34.62283868 -18.3125 34.3125 C-24.09489805 31.05063443 -29.1339811 24.20971859 -31.05078125 17.87109375 C-31.69570075 13.27895611 -31.41816918 9.52383836 -29.3125 5.3125 C-21.73686726 -3.49161372 -10.09940347 -7.30676539 0 0 Z M-48.3125 55.3125 C-50.2925 57.6225 -52.2725 59.9325 -54.3125 62.3125 C-51.35741137 62.65620205 -51.35741137 62.65620205 -49.92578125 61 C-49.49652344 60.443125 -49.06726563 59.88625 -48.625 59.3125 C-47.4803125 57.8275 -47.4803125 57.8275 -46.3125 56.3125 C-46.9725 55.9825 -47.6325 55.6525 -48.3125 55.3125 Z M-1.3125 66.3125 C-1.9725 67.6325 -2.6325 68.9525 -3.3125 70.3125 C-2.57515625 70.70695312 -1.8378125 71.10140625 -1.078125 71.5078125 C1.90137434 73.45206207 3.72718163 75.41194754 5.9375 78.1875 C6.62328125 79.03054687 7.3090625 79.87359375 8.015625 80.7421875 C9.71990597 83.3623204 10.31274443 85.23729988 10.6875 88.3125 C12.6675 86.9925 14.6475 85.6725 16.6875 84.3125 C12.9573595 79.77584263 9.01696434 75.53308878 4.875 71.375 C4.38281982 70.87830811 3.89063965 70.38161621 3.38354492 69.86987305 C1.38120733 67.39918196 1.38120733 67.39918196 -1.3125 66.3125 Z M-17.3125 81.3125 C-17.3125 81.9725 -17.3125 82.6325 -17.3125 83.3125 C-19.2925 84.3025 -19.2925 84.3025 -21.3125 85.3125 C-19.34931826 88.84622712 -17.27179119 91.55729785 -14.3125 94.3125 C-11.27397295 92.90273295 -8.7185405 91.22379772 -6.0625 89.1875 C-5.00289062 88.37925781 -5.00289062 88.37925781 -3.921875 87.5546875 C-3.39078125 87.14476562 -2.8596875 86.73484375 -2.3125 86.3125 C-2.6425 85.6525 -2.9725 84.9925 -3.3125 84.3125 C-4.199375 85.01375 -5.08625 85.715 -6 86.4375 C-9.3125 88.3125 -9.3125 88.3125 -12.125 87.875 C-14.3125 86.3125 -14.3125 86.3125 -15.125 83.6875 C-15.2178125 82.511875 -15.2178125 82.511875 -15.3125 81.3125 C-15.9725 81.3125 -16.6325 81.3125 -17.3125 81.3125 Z " fill="#FCFCFC" transform="translate(405.3125,130.6875)"/>
<path d="M0 0 C3.50155834 2.69911788 6.01958453 5.35166905 8 9.3125 C8.83007271 19.68160499 7.72541683 25.72437476 2 34.3125 C4.81414352 33.00350294 7.62602537 31.68971835 10.4375 30.375 C11.23994141 30.00181641 12.04238281 29.62863281 12.86914062 29.24414062 C13.63291016 28.88642578 14.39667969 28.52871094 15.18359375 28.16015625 C15.89056396 27.83023682 16.59753418 27.50031738 17.32592773 27.16040039 C18.9891159 26.42715443 18.9891159 26.42715443 20 25.3125 C25.3809547 24.8445909 25.3809547 24.8445909 27.55297852 26.48632812 C29.38009767 28.79219134 30.24571707 31.02423503 31.27734375 33.78125 C31.70289551 34.89757812 32.12844727 36.01390625 32.56689453 37.1640625 C33.01919434 38.36804688 33.47149414 39.57203125 33.9375 40.8125 C38.32495319 52.31393562 43.10349931 63.57533308 48.20288086 74.77929688 C48.92616577 76.37354492 48.92616577 76.37354492 49.6640625 78 C50.09154785 78.93199219 50.5190332 79.86398438 50.95947266 80.82421875 C51.87947581 83.0242826 52.66397129 84.95339646 53 87.3125 C51.51953125 89.99609375 51.51953125 89.99609375 49 92.3125 C45.63671875 93.09765625 45.63671875 93.09765625 41.6875 93.375 C22.94968393 95.14513286 4.01202982 101.39029472 -10 114.3125 C-10.73734375 114.93382812 -11.4746875 115.55515625 -12.234375 116.1953125 C-15.94832227 119.32641403 -18.9861645 122.48724726 -22 126.3125 C-22.66 126.3125 -23.32 126.3125 -24 126.3125 C-24.2475 127.034375 -24.495 127.75625 -24.75 128.5 C-26.18149835 131.72087128 -27.4288367 133.8803185 -30 136.3125 C-33.27734375 136.9375 -33.27734375 136.9375 -37 136.3125 C-39.46990545 134.03525251 -41.12180851 131.34771187 -42.875 128.5 C-43.3596875 127.76201172 -43.844375 127.02402344 -44.34375 126.26367188 C-46.27576142 123.2820062 -47.87142947 120.69821159 -49 117.3125 C-49.66 117.3125 -50.32 117.3125 -51 117.3125 C-52.42342879 115.44669482 -53.76232837 113.51619706 -55.0625 111.5625 C-58.14205273 106.99334691 -61.29460599 102.51792109 -64.625 98.125 C-66.08368462 96.18776446 -67.5420306 94.25027387 -69 92.3125 C-69.68835938 91.40113281 -70.37671875 90.48976563 -71.0859375 89.55078125 C-72.03339844 88.25720703 -72.03339844 88.25720703 -73 86.9375 C-73.556875 86.18726563 -74.11375 85.43703125 -74.6875 84.6640625 C-76.32076164 81.73780206 -76.9305245 79.6733773 -77 76.3125 C-74.10451708 71.06080748 -68.69805951 68.11059518 -63.8125 64.875 C-62.59336914 64.05418945 -62.59336914 64.05418945 -61.34960938 63.21679688 C-59.71758559 62.11969258 -58.08102733 61.02930271 -56.43994141 59.94580078 C-54.79476218 58.84451511 -53.16684385 57.71705554 -51.55615234 56.56591797 C-50.77836426 56.01693848 -50.00057617 55.46795898 -49.19921875 54.90234375 C-48.51045654 54.40468506 -47.82169434 53.90702637 -47.11206055 53.39428711 C-44.5285153 52.07100784 -42.86645468 51.95755495 -40 52.3125 C-36.69778154 55.63945418 -34.61564322 59.5971343 -32.375 63.6875 C-25.68523253 76.22858587 -25.68523253 76.22858587 -17 87.3125 C-16.85884839 89.98308851 -16.95752893 92.63682238 -17 95.3125 C-17.66 95.3125 -18.32 95.3125 -19 95.3125 C-19.21011719 95.83328125 -19.42023438 96.3540625 -19.63671875 96.890625 C-21.58841883 100.35782859 -24.14507854 103.12736877 -26.8125 106.0625 C-27.59463867 106.96548828 -27.59463867 106.96548828 -28.39257812 107.88671875 C-32.21790652 112.09887811 -32.21790652 112.09887811 -35.57421875 113.015625 C-38 112.3125 -38 112.3125 -43 107.3125 C-40.03 111.9325 -37.06 116.5525 -34 121.3125 C-29.22880216 116.86816238 -29.22880216 116.86816238 -27 113.3125 C-26.34 113.3125 -25.68 113.3125 -25 113.3125 C-25 112.6525 -25 111.9925 -25 111.3125 C-24.34 111.3125 -23.68 111.3125 -23 111.3125 C-23 110.6525 -23 109.9925 -23 109.3125 C-21.44996996 107.91660053 -19.83365761 106.59362981 -18.1875 105.3125 C-16.84751953 104.260625 -16.84751953 104.260625 -15.48046875 103.1875 C-13.69566972 101.83836058 -11.86157838 100.55355225 -10 99.3125 C-10.45439453 98.22195312 -10.45439453 98.22195312 -10.91796875 97.109375 C-13.41796875 91.109375 -13.41796875 91.109375 -14.15063477 89.35083008 C-14.76817501 87.86884 -15.38587158 86.38691506 -16.00366211 84.9050293 C-16.82695841 82.92984569 -17.64983188 80.95448583 -18.47241211 78.97900391 C-19.60334501 76.26454806 -20.73586192 73.55077601 -21.86938477 70.83740234 C-23.62133356 66.64095823 -25.36427164 62.44083893 -27.10327148 58.23901367 C-27.82878054 56.48985235 -28.55699215 54.74180965 -29.2878418 52.99487305 C-30.35904907 50.43301995 -31.42062921 47.86735454 -32.48046875 45.30078125 C-32.96642769 44.14730949 -32.96642769 44.14730949 -33.46220398 42.97053528 C-35.57807998 37.81104414 -36.91610242 32.78491061 -38 27.3125 C-42.62 27.3125 -47.24 27.3125 -52 27.3125 C-51.71125 28.88 -51.4225 30.4475 -51.125 32.0625 C-50.96257812 32.94421875 -50.80015625 33.8259375 -50.6328125 34.734375 C-50.02969035 37.19153931 -49.16064976 39.08157894 -48 41.3125 C-47.625 43.875 -47.625 43.875 -48 46.3125 C-49.6875 48.1875 -49.6875 48.1875 -52 49.3125 C-54.5625 49.25 -54.5625 49.25 -57 48.3125 C-61.86695241 42.82947766 -63.39131672 35.1850098 -63 28 C-62.24536035 23.00349118 -60.86040115 20.59794779 -57 17.3125 C-50.64685815 14.56879513 -43.64231607 14.70224156 -37 16.3125 C-36.690625 15.69375 -36.38125 15.075 -36.0625 14.4375 C-35.375 13.0625 -34.6875 11.6875 -34 10.3125 C-33.34 10.3125 -32.68 10.3125 -32 10.3125 C-31.65582031 9.43658203 -31.65582031 9.43658203 -31.3046875 8.54296875 C-29.65940246 5.73022097 -27.80662072 4.45916492 -25.125 2.625 C-23.82949219 1.72201172 -23.82949219 1.72201172 -22.5078125 0.80078125 C-16.23508493 -2.92181875 -6.49110684 -3.49196203 0 0 Z M-26.43359375 18.21484375 C-28.34356717 20.77258871 -28.74373866 22.12175727 -29 25.3125 C-28.17832376 27.89930631 -27.29682992 30.22514843 -26.203125 32.69140625 C-25.89825668 33.40823578 -25.59338837 34.12506531 -25.27928162 34.86361694 C-24.62239136 36.40466188 -23.95962461 37.94321255 -23.29159546 39.47946167 C-21.53486012 43.51973162 -19.81966809 47.57765335 -18.09765625 51.6328125 C-17.57598625 52.85595406 -17.57598625 52.85595406 -17.04377747 54.10380554 C-13.78378672 61.76518669 -10.70652493 69.49102281 -7.6875 77.25 C-7.23858398 78.40250244 -6.78966797 79.55500488 -6.32714844 80.74243164 C-5.54932719 82.7429115 -4.7729325 84.74394742 -3.9987793 86.74584961 C-3.0147854 89.27450466 -2.01177242 91.79484694 -1 94.3125 C0.04414063 93.86519531 1.08828125 93.41789062 2.1640625 92.95703125 C14.18461974 87.96760088 26.25525457 84.86970392 39 82.3125 C38.53987531 80.86437751 38.07390469 79.41811162 37.60546875 77.97265625 C37.34660889 77.16707275 37.08774902 76.36148926 36.82104492 75.53149414 C35.91362915 73.07907012 34.7634185 71.24386312 33 69.3125 C32.75507813 70.09625 32.51015625 70.88 32.2578125 71.6875 C30.76772551 74.79724677 30.0572645 75.19061692 26.875 76.3125 C25.98941406 76.62832031 25.10382813 76.94414062 24.19140625 77.26953125 C22.61166016 77.78580078 22.61166016 77.78580078 21 78.3125 C20.36562012 78.52438965 19.73124023 78.7362793 19.07763672 78.95458984 C16.99289413 79.64818008 14.90413672 80.32749785 12.8125 81 C11.81549072 81.32194336 11.81549072 81.32194336 10.79833984 81.65039062 C6.51961535 82.98065213 2.43070874 83.78954994 -2 84.3125 C-2.08765625 83.67570312 -2.1753125 83.03890625 -2.265625 82.3828125 C-3.28858318 78.10597671 -5.01489296 74.21932833 -6.75 70.1875 C-7.10835937 69.3416333 -7.46671875 68.4957666 -7.8359375 67.62426758 C-10.13734125 62.2200045 -12.54950483 56.88667623 -15.1875 51.63671875 C-16.18846811 48.77337246 -16.13902457 46.32325083 -16 43.3125 C-15.05125 43.02375 -14.1025 42.735 -13.125 42.4375 C-9.94788422 41.54424891 -9.94788422 41.54424891 -8 39.3125 C-9.65 38.9825 -11.3 38.6525 -13 38.3125 C-12.875 35.0625 -12.875 35.0625 -12 31.3125 C-8.9375 29 -8.9375 29 -6 27.3125 C-6 26.6525 -6 25.9925 -6 25.3125 C-5.34 25.3125 -4.68 25.3125 -4 25.3125 C-2.09391902 22.10067851 -1.77733753 19.77367397 -1.875 16.0625 C-1.90207031 14.72445312 -1.90207031 14.72445312 -1.9296875 13.359375 C-1.95289063 12.68390625 -1.97609375 12.0084375 -2 11.3125 C-2.66 11.3125 -3.32 11.3125 -4 11.3125 C-4 10.6525 -4 9.9925 -4 9.3125 C-14.1381247 7.14004471 -19.32205393 11.21463919 -26.43359375 18.21484375 Z M13.67578125 40.62109375 C12.64775391 41.12060547 11.61972656 41.62011719 10.56054688 42.13476562 C8.95276367 42.93430664 8.95276367 42.93430664 7.3125 43.75 C5.68731445 44.54374023 5.68731445 44.54374023 4.02929688 45.35351562 C1.34841784 46.66443005 -1.32761846 47.98437095 -4 49.3125 C-3.29978801 53.85294332 -2.21668818 57.83000101 -0.5625 62.125 C0.08525391 63.83623047 0.08525391 63.83623047 0.74609375 65.58203125 C1.70762597 68.42722252 1.70762597 68.42722252 4 69.3125 C3.855625 68.74402344 3.71125 68.17554688 3.5625 67.58984375 C2.38454495 62.68987795 1.78572473 58.3479688 2 53.3125 C3.49138477 52.48429247 4.99371203 51.67578261 6.5 50.875 C7.75296875 50.19630859 7.75296875 50.19630859 9.03125 49.50390625 C12.74716267 48.01265183 16.01852868 47.68257265 20 47.3125 C28.44646925 61.90931093 28.44646925 61.90931093 32 69.3125 C32.33 69.3125 32.66 69.3125 33 69.3125 C33.34841192 64.91278672 32.24488263 62.17804228 30.3125 58.25 C27.66602048 52.77603174 25.33957275 47.25900715 23.17578125 41.578125 C20.70074375 36.80894974 17.62490709 38.67925839 13.67578125 40.62109375 Z M14 58.3125 C12.94595055 62.29446457 13.15901344 65.29445309 14 69.3125 C15.98 68.9825 17.96 68.6525 20 68.3125 C18.35 65.0125 16.7 61.7125 15 58.3125 C14.67 58.3125 14.34 58.3125 14 58.3125 Z M-49.25390625 68.15625 C-50.53491211 69.03603516 -50.53491211 69.03603516 -51.84179688 69.93359375 C-52.73962891 70.55363281 -53.63746094 71.17367187 -54.5625 71.8125 C-55.46419922 72.43253906 -56.36589844 73.05257812 -57.29492188 73.69140625 C-59.53137871 75.22970989 -61.76632407 76.77016239 -64 78.3125 C-63.24306519 81.74226269 -62.1148058 83.78296069 -59.9375 86.5625 C-59.11572266 87.62210938 -59.11572266 87.62210938 -58.27734375 88.703125 C-57.85582031 89.23421875 -57.43429688 89.7653125 -57 90.3125 C-55.81921986 88.2525166 -55.81921986 88.2525166 -55.73046875 85.43359375 C-54.81328479 81.51471684 -53.59181851 80.61513238 -50.3125 78.375 C-49.46300781 77.76785156 -48.61351562 77.16070312 -47.73828125 76.53515625 C-44.32844987 75.01264951 -42.54512776 75.27623189 -39 76.3125 C-38.34 76.9725 -37.68 77.6325 -37 78.3125 C-37.63723011 74.83959591 -39.02437217 72.46895247 -41 69.5625 C-41.53625 68.76328125 -42.0725 67.9640625 -42.625 67.140625 C-43.07875 66.53734375 -43.5325 65.9340625 -44 65.3125 C-45.96307702 65.3125 -47.70673242 67.09064683 -49.25390625 68.15625 Z M4 69.3125 C4 70.3025 4 71.2925 4 72.3125 C4.99 71.9825 5.98 71.6525 7 71.3125 C6.34 71.3125 5.68 71.3125 5 71.3125 C4.67 70.6525 4.34 69.9925 4 69.3125 Z M-30 89.3125 C-29 91.3125 -29 91.3125 -29 91.3125 Z M-55 91.3125 C-54.67 92.3025 -54.34 93.2925 -54 94.3125 C-54 93.3225 -54 92.3325 -54 91.3125 C-54.33 91.3125 -54.66 91.3125 -55 91.3125 Z M-52 95.3125 C-51 97.3125 -51 97.3125 -51 97.3125 Z M-37 95.3125 C-36.01 96.7975 -36.01 96.7975 -35 98.3125 C-34.34 97.3225 -33.68 96.3325 -33 95.3125 C-34.32 95.3125 -35.64 95.3125 -37 95.3125 Z M-50 98.3125 C-48.55746343 101.67841866 -46.66735273 103.82297079 -44 106.3125 C-45.26941497 102.39847051 -46.51167694 100.52177127 -50 98.3125 Z " fill="#FCFCFC" transform="translate(228,111.6875)"/>
<path d="M0 0 C2.27589168 2.29498816 2.96114811 3.62041701 3.29296875 6.86230469 C3.25816406 7.95446289 3.22335938 9.04662109 3.1875 10.171875 C3.16204102 11.38593018 3.13658203 12.59998535 3.11035156 13.85083008 C3.07393555 15.13755615 3.03751953 16.42428223 3 17.75 C2.84733019 28.67459625 3.27914321 38.38515527 6 49 C6.29692424 50.33897273 6.58976613 51.67885606 6.87890625 53.01953125 C8.69450371 61.15302159 11.25326288 68.48150177 14.828125 76.01171875 C16.00935386 79.02385234 16.58504372 80.82017904 16 84 C13.16336926 86.56028276 10.4935872 87.66026574 6.84375 88.68359375 C5.83070801 88.96960449 4.81766602 89.25561523 3.77392578 89.55029297 C2.69353027 89.84307129 1.61313477 90.13584961 0.5 90.4375 C-0.61262207 90.74316895 -1.72524414 91.04883789 -2.87158203 91.36376953 C-19.42492602 95.82671568 -35.58142689 99.01479198 -52.75 99.125 C-53.81480591 99.13225098 -53.81480591 99.13225098 -54.90112305 99.13964844 C-66.73809947 99.10080684 -66.73809947 99.10080684 -70.9375 95.4375 C-71.618125 94.633125 -72.29875 93.82875 -73 93 C-73.763125 93.78375 -74.52625 94.5675 -75.3125 95.375 C-79.55289612 99.51678226 -81.90341529 100.34944417 -87.75 100.5 C-95.58475162 100.35476259 -95.58475162 100.35476259 -99.0625 97.625 C-102.7470711 93.69851261 -104.92955332 88.91731086 -107 84 C-107.433125 83.01 -107.86625 82.02 -108.3125 81 C-110.43234792 71.74975452 -108.40029023 65.2662595 -104 57 C-104.59554687 56.76152344 -105.19109375 56.52304687 -105.8046875 56.27734375 C-108.46765177 54.72789657 -109.49578734 53.15985735 -111.125 50.5625 C-111.62257813 49.78003906 -112.12015625 48.99757813 -112.6328125 48.19140625 C-113.08398438 47.46824219 -113.53515625 46.74507813 -114 46 C-114.66 45.01 -115.32 44.02 -116 43 C-117.08407385 36.15978184 -116.84349134 30.32093093 -113 24.4375 C-109.62515997 20.26818053 -106.28990652 17.27443255 -101 16 C-96.40803109 15.60220232 -93.63748251 16.59544379 -89.75 19.0625 C-85.78604542 22.79901457 -83.32792242 27.48592808 -82.625 32.875 C-83 35 -83 35 -85 37 C-88.625 37.125 -88.625 37.125 -92 37 C-93.65 34.03 -95.3 31.06 -97 28 C-99.74892592 28.89154354 -101.71566361 29.74409725 -103.875 31.6875 C-105.13545504 34.27843536 -105.41262365 36.0975932 -104.79205322 38.92971802 C-102.87049153 43.95232817 -100.3436981 47.77375098 -96 51 C-90.11156069 52.10271835 -84.50348596 51.47239458 -78.578125 50.8828125 C-76.8698824 50.75170543 -75.16126578 50.62539218 -73.45233154 50.50363159 C-68.96100675 50.1713532 -64.47727085 49.77722266 -59.99230957 49.36883545 C-55.46118504 48.96594556 -50.92600985 48.61670981 -46.390625 48.265625 C-41.27420629 47.8688126 -36.15883058 47.46784082 -31.04669189 47.01882935 C-22.67384555 46.29146558 -14.41532027 45.78554033 -6 46 C-6.23033936 45.13995361 -6.46067871 44.27990723 -6.69799805 43.39379883 C-9.51142056 32.58460382 -9.28522731 22.09217335 -9 11 C-11.97 11.66 -14.94 12.32 -18 13 C-17.70351562 13.83660156 -17.40703125 14.67320312 -17.1015625 15.53515625 C-15.95243638 19.14960614 -15.1282064 22.72092097 -14.375 26.4375 C-13.98441406 28.32275391 -13.98441406 28.32275391 -13.5859375 30.24609375 C-13.01059288 33.93213492 -12.75094559 37.27802019 -13 41 C-18.14593516 46.14593516 -30.85711832 44.30726046 -38.0090332 44.50268555 C-40.1656783 44.56190084 -42.32207474 44.62716257 -44.47851562 44.69335938 C-47.97234866 44.79787895 -51.46623184 44.88094841 -54.96087646 44.95294189 C-56.99613249 44.99991075 -59.03023932 45.06591693 -61.06494141 45.13232422 C-62.31839355 45.15955566 -63.5718457 45.18678711 -64.86328125 45.21484375 C-65.97614502 45.24570068 -67.08900879 45.27655762 -68.2355957 45.30834961 C-71 45 -71 45 -72.86303711 43.7043457 C-74.78631283 40.82129056 -74.34888188 37.59050386 -74.25 34.25 C-74.23686768 33.50008789 -74.22373535 32.75017578 -74.21020508 31.97753906 C-74.16003556 29.65065247 -74.08313893 27.32592233 -74 25 C-73.97921387 24.27941406 -73.95842773 23.55882812 -73.93701172 22.81640625 C-73.51723661 9.4582295 -73.51723661 9.4582295 -70 5 C-67.11865234 4.1887207 -67.11865234 4.1887207 -63.5859375 3.92578125 C-62.27923096 3.81661377 -60.97252441 3.70744629 -59.6262207 3.5949707 C-58.20918495 3.50024648 -56.79211031 3.4061023 -55.375 3.3125 C-53.9258617 3.20025446 -52.47688553 3.08589683 -51.02807617 2.96948242 C-48.09256455 2.73697937 -45.15652631 2.51742952 -42.21923828 2.30859375 C-38.40172701 2.03476154 -34.58972789 1.71345017 -30.77734375 1.375 C-4.58245184 -0.93551785 -4.58245184 -0.93551785 0 0 Z M-57.6875 14.5 C-58.68136719 14.5928125 -59.67523438 14.685625 -60.69921875 14.78125 C-61.83810547 14.88953125 -61.83810547 14.88953125 -63 15 C-63.84023188 19.35332736 -64.10770995 23.44442519 -64.0625 27.875 C-64.041875 29.89625 -64.02125 31.9175 -64 34 C-58.72 34 -53.44 34 -48 34 C-48.99 32.68 -49.98 31.36 -51 30 C-52.31331381 25.70188208 -52.28712997 21.4505146 -52 17 C-50.5 15 -50.5 15 -49 14 C-51.93593133 14 -54.76556416 14.22499427 -57.6875 14.5 Z M-42 24 C-41.979375 24.928125 -41.95875 25.85625 -41.9375 26.8125 C-42 30 -42 30 -43 33 C-37.06 33 -31.12 33 -25 33 C-25.495 28.05 -25.495 28.05 -26 23 C-31.41499441 22.88478735 -36.62915894 23.31798844 -42 24 Z M-8 56 C-8 63.59 -8 71.18 -8 79 C-16.70658661 79.09782682 -25.36408662 78.92399072 -34.0625 78.5625 C-35.56115601 78.50364624 -35.56115601 78.50364624 -37.09008789 78.44360352 C-38.04133545 78.40162842 -38.99258301 78.35965332 -39.97265625 78.31640625 C-40.82093994 78.27974854 -41.66922363 78.24309082 -42.54321289 78.20532227 C-45.08843864 77.99260887 -47.50718653 77.54767833 -50 77 C-50.66 74.69 -51.32 72.38 -52 70 C-56.455 70.495 -56.455 70.495 -61 71 C-61 76.61 -61 82.22 -61 88 C-42.74639579 88.48604272 -26.70150051 86.25365924 -9 81.9375 C-7.41288208 81.55150635 -7.41288208 81.55150635 -5.79370117 81.15771484 C-4.80990479 80.90844238 -3.8261084 80.65916992 -2.8125 80.40234375 C-1.93207031 80.18054443 -1.05164063 79.95874512 -0.14453125 79.73022461 C2.17925888 79.11503671 2.17925888 79.11503671 4 77 C3.67386719 76.23816406 3.34773438 75.47632813 3.01171875 74.69140625 C0.40182018 68.52465476 -1.97844415 62.38386058 -4 56 C-5.32 56 -6.64 56 -8 56 Z M-28.30078125 57.4375 C-29.27724609 57.52773438 -30.25371094 57.61796875 -31.25976562 57.7109375 C-32.77086914 57.85402344 -32.77086914 57.85402344 -34.3125 58 C-35.85260742 58.14308594 -35.85260742 58.14308594 -37.42382812 58.2890625 C-39.94941657 58.52400096 -42.47478874 58.76104708 -45 59 C-44.51917969 59.60328125 -44.03835937 60.2065625 -43.54296875 60.828125 C-41.82205451 63.25047518 -41.4047532 65.08577697 -41 68 C-33.29928525 68.75260039 -25.73773151 69.10181226 -18 69 C-18 65.04 -18 61.08 -18 57 C-21.52399529 57 -24.81330941 57.11118685 -28.30078125 57.4375 Z M-55 59 C-55 59.33 -55 59.66 -55 60 C-53.35 60 -51.7 60 -50 60 C-50 59.67 -50 59.34 -50 59 C-51.65 59 -53.3 59 -55 59 Z M-68 60 C-64 61 -64 61 -64 61 Z M-97 65.625 C-99.37377921 69.63075242 -99.87893249 72.51581667 -99 77 C-97.59008107 81.55223823 -95.83065001 85.08191315 -92.625 88.625 C-90.03251564 90.24167031 -90.03251564 90.24167031 -86.875 90 C-83.96550114 89.19710122 -83.96550114 89.19710122 -82.0625 87.25 C-80.6690112 84.29908254 -80.95290806 83.06648353 -82 80 C-82.53625 79.21625 -83.0725 78.4325 -83.625 77.625 C-85.47506795 74.09305209 -84.8224051 71.81296911 -84 68 C-81.25 67.6875 -81.25 67.6875 -78 68 C-75.75 70.3125 -75.75 70.3125 -74 73 C-73.01 74.485 -73.01 74.485 -72 76 C-71.86722656 75.08476562 -71.73445313 74.16953125 -71.59765625 73.2265625 C-71.42105469 72.03804687 -71.24445313 70.84953125 -71.0625 69.625 C-70.80146484 67.84996094 -70.80146484 67.84996094 -70.53515625 66.0390625 C-70 63 -70 63 -69 61 C-71.66694948 60.94544876 -74.33275498 60.90606608 -77 60.875 C-77.74378906 60.85824219 -78.48757812 60.84148437 -79.25390625 60.82421875 C-85.87106289 60.76667826 -91.83600689 61.10650603 -97 65.625 Z " fill="#FCFCFC" transform="translate(186,268)"/>
<path d="M0 0 C4.85551594 0.53465232 8.71660498 2.43068399 13.1015625 4.5078125 C14.00036133 4.92305176 14.89916016 5.33829102 15.82519531 5.76611328 C21.26142448 8.29196859 26.63184461 10.93088412 31.96875 13.66015625 C37.04742802 16.15425091 42.20156733 18.47779636 47.3515625 20.8203125 C56.15854021 24.82774551 64.87695861 28.94674923 73.4765625 33.3828125 C73.89900147 39.81247688 72.87139542 43.66199217 69.7890625 49.2578125 C69.24040527 50.30424927 69.24040527 50.30424927 68.68066406 51.37182617 C67.62553595 53.3826694 66.5525405 55.38307313 65.4765625 57.3828125 C62.31342827 63.42152329 59.60888289 69.39310654 57.37109375 75.83984375 C56.47556957 78.38563521 55.49494694 80.88395729 54.4765625 83.3828125 C62.88372909 86.84458698 71.53074575 89.46148759 80.6171875 86.7421875 C82.44378471 85.83775587 84.02925735 84.83011765 85.4765625 83.3828125 C85.60171178 81.40661803 85.6522901 79.42543077 85.6640625 77.4453125 C85.67824219 76.36378906 85.69242187 75.28226562 85.70703125 74.16796875 C85.76704281 71.24236935 85.76704281 71.24236935 83.4765625 69.3828125 C80.02949071 69.47352492 78.77015893 70.08058089 76.3515625 72.5703125 C74.45443525 75.41600337 72.94829062 78.29919168 71.4765625 81.3828125 C70.4765625 82.3828125 70.4765625 82.3828125 67.5390625 82.5703125 C64.4765625 82.3828125 64.4765625 82.3828125 62.4765625 80.3828125 C62.12123138 74.4606271 63.64837285 69.91619498 67.4765625 65.3828125 C72.09044813 60.38543508 76.58812413 57.7606062 83.4765625 57.3828125 C88.06097539 58.26443036 91.17851702 60.08476702 94.4765625 63.3828125 C97.66597075 70.94371738 98.23411906 82.34235457 95.1015625 90.0703125 C92.20694524 94.67723856 87.50186488 96.74102337 82.4765625 98.3828125 C79.13549074 98.99110546 75.8698791 99.30339445 72.4765625 99.3828125 C72.8065625 100.0428125 73.1365625 100.7028125 73.4765625 101.3828125 C74.18150581 111.19779244 73.35717928 117.02666763 67.0390625 124.6328125 C64.08624341 128.04143588 61.6867053 130.06443347 57.14453125 130.71875 C51.00397448 130.81545168 47.53006012 129.8982891 42.4765625 126.3828125 C42.4765625 125.7228125 42.4765625 125.0628125 42.4765625 124.3828125 C41.8165625 124.3828125 41.1565625 124.3828125 40.4765625 124.3828125 C36.49557762 119.0878106 36.67497362 113.75148022 37.4765625 107.3828125 C39.20830838 104.22856108 40.27352322 103.003736 43.4140625 101.3828125 C46.58754289 101.3828125 48.09421504 102.33134663 50.4765625 104.3828125 C50.7890625 107.5703125 50.7890625 107.5703125 50.4765625 110.3828125 C48.9915625 110.8778125 48.9915625 110.8778125 47.4765625 111.3828125 C48.39477786 114.21397652 49.24314109 116.13329307 51.2890625 118.3203125 C53.45472072 119.62701689 53.45472072 119.62701689 55.9765625 119.0078125 C59.38555517 116.79196726 61.22163584 114.19214609 62.4765625 110.3828125 C62.71604321 106.48580823 62.09069304 103.31629092 59.9140625 100.0078125 C59.4396875 99.4715625 58.9653125 98.9353125 58.4765625 98.3828125 C58.4765625 97.7228125 58.4765625 97.0628125 58.4765625 96.3828125 C57.49171875 96.14046875 56.506875 95.898125 55.4921875 95.6484375 C51.07626601 94.37979939 47.24430193 92.32835096 43.2265625 90.1328125 C41.56051338 89.23843202 39.89380491 88.34527906 38.2265625 87.453125 C37.3190625 86.96618164 36.4115625 86.47923828 35.4765625 85.97753906 C32.15505618 84.21190761 28.81853417 82.47645074 25.4765625 80.75 C24.87708801 80.44026245 24.27761353 80.1305249 23.65997314 79.81140137 C20.6839538 78.27471498 17.70689078 76.74006765 14.72949219 75.20605469 C5.5058569 70.43875214 5.5058569 70.43875214 1.33203125 68.015625 C-1.05419395 66.65113508 -2.83555968 65.81287295 -5.5234375 65.3828125 C-5.63945312 65.94097656 -5.75546875 66.49914062 -5.875 67.07421875 C-8.29739201 75.69851803 -14.06131019 82.59378821 -19.91552734 89.14233398 C-22.65104749 91.84609727 -22.65104749 91.84609727 -23.5234375 95.3828125 C-21.5634094 97.01957507 -21.5634094 97.01957507 -19.5234375 98.3828125 C-15.99720291 95.05410822 -15.99720291 95.05410822 -13.203125 91.125 C-11.09606104 87.68509559 -8.58932442 84.74507025 -5.9609375 81.6953125 C-5.46658203 81.11458984 -4.97222656 80.53386719 -4.46289062 79.93554688 C1.09762766 73.42695646 1.09762766 73.42695646 3.84472656 73.10693359 C6.80319417 73.41705126 8.15892826 74.11569585 10.5859375 75.796875 C11.34132813 76.31121094 12.09671875 76.82554687 12.875 77.35546875 C14.03902344 78.17337891 14.03902344 78.17337891 15.2265625 79.0078125 C15.98710937 79.52988281 16.74765625 80.05195313 17.53125 80.58984375 C19.0708786 81.64670745 20.60282801 82.71484394 22.12695312 83.79394531 C24.47420701 85.42764895 24.47420701 85.42764895 27.06054688 86.83886719 C29.43528257 88.21219711 31.48390122 89.49670604 33.4765625 91.3828125 C34.908537 98.03523773 32.22616614 103.48105041 29.6015625 109.5703125 C29.23675781 110.44623047 28.87195313 111.32214844 28.49609375 112.22460938 C27.79955364 113.8950392 27.09710588 115.56302267 26.38769531 117.22802734 C25.65868452 118.95210271 24.96411496 120.69072598 24.28125 122.43359375 C23.4765625 124.3828125 23.4765625 124.3828125 22.4765625 125.3828125 C16.61185478 125.90247015 12.92170725 124.60471591 7.8515625 122.0078125 C2.84023769 119.46726497 2.84023769 119.46726497 -2.421875 117.53125 C-4.5234375 116.3828125 -4.5234375 116.3828125 -5.58203125 113.78125 C-5.50168594 109.12122222 -3.79092332 106.03874526 -1.5859375 102.0078125 C-1.19986328 101.27175781 -0.81378906 100.53570312 -0.41601562 99.77734375 C0.53379595 97.97152915 1.50325973 96.17607493 2.4765625 94.3828125 C4.7865625 94.3828125 7.0965625 94.3828125 9.4765625 94.3828125 C11.50820625 98.55302862 11.55559446 100.97687188 10.1015625 105.2578125 C9.57716336 106.63949022 9.04108325 108.01703649 8.4765625 109.3828125 C10.7865625 110.3728125 13.0965625 111.3628125 15.4765625 112.3828125 C18.73888842 107.7223469 19.95849429 102.80448467 21.4765625 97.3828125 C16.5265625 94.0828125 11.5765625 90.7828125 6.4765625 87.3828125 C2.49431499 89.36710935 2.49431499 89.36710935 -0.1796875 92.4296875 C-0.64503906 93.0278125 -1.11039062 93.6259375 -1.58984375 94.2421875 C-2.06292969 94.86609375 -2.53601563 95.49 -3.0234375 96.1328125 C-3.49652344 96.74125 -3.96960938 97.3496875 -4.45703125 97.9765625 C-6.65899335 100.83118373 -8.7303461 103.69704802 -10.71484375 106.7109375 C-12.73792831 109.69968445 -14.16012828 111.07030158 -17.5234375 112.3828125 C-22.16846166 111.06385502 -25.80058585 108.25221902 -29.6484375 105.4453125 C-30.26847656 105.00251953 -30.88851563 104.55972656 -31.52734375 104.10351562 C-37.32598788 99.91976271 -37.32598788 99.91976271 -39.5234375 97.3828125 C-39.37425864 91.71401588 -35.56920137 88.50327378 -31.8984375 84.5703125 C-29.5234375 82.3828125 -29.5234375 82.3828125 -27.5234375 82.3828125 C-26.8634375 80.7328125 -26.2034375 79.0828125 -25.5234375 77.3828125 C-24.8634375 77.3828125 -24.2034375 77.3828125 -23.5234375 77.3828125 C-23.25917969 76.8259375 -22.99492187 76.2690625 -22.72265625 75.6953125 C-21.5234375 73.3828125 -21.5234375 73.3828125 -20.04296875 71.0703125 C-15.98734839 64.68526259 -13.19251695 58.32284656 -10.7109375 51.1953125 C-10.42130127 50.36451172 -10.13166504 49.53371094 -9.83325195 48.67773438 C-9.01826329 46.25747954 -8.25471652 43.82959023 -7.5234375 41.3828125 C-7.31734863 40.69872314 -7.11125977 40.01463379 -6.89892578 39.30981445 C-4.80915572 31.32907082 -5.11621428 23.05073832 -4.99169922 14.85668945 C-4.95807649 12.84571867 -4.91281837 10.8349529 -4.8671875 8.82421875 C-4.84849609 7.63513916 -4.82980469 6.44605957 -4.81054688 5.22094727 C-4.43645631 1.52298572 -3.7009978 0.56145168 0 0 Z M6.4765625 14.3828125 C6.46238281 15.28257812 6.44820313 16.18234375 6.43359375 17.109375 C6.00950261 28.54837375 3.71838031 39.19614705 0.91967773 50.27661133 C0.373623 52.51338304 0.373623 52.51338304 0.4765625 55.3828125 C9.11829287 59.99037016 17.76244976 64.56705885 26.546875 68.8984375 C31.04421607 71.17709031 35.44949742 73.61961817 39.859375 76.0625 C42.28560928 77.5329488 42.28560928 77.5329488 44.4765625 77.3828125 C48.9963637 68.46355984 53.34976269 59.49269334 57.4765625 50.3828125 C58.10111328 49.02542969 58.10111328 49.02542969 58.73828125 47.640625 C59.10566406 46.83367187 59.47304688 46.02671875 59.8515625 45.1953125 C60.32722656 44.15310547 60.32722656 44.15310547 60.8125 43.08984375 C61.59741222 41.3774323 61.59741222 41.3774323 61.4765625 39.3828125 C60.1565625 39.0528125 58.8365625 38.7228125 57.4765625 38.3828125 C55.50840855 41.58521726 53.55384192 44.79570975 51.6015625 48.0078125 C51.04597656 48.91144531 50.49039063 49.81507813 49.91796875 50.74609375 C47.2227982 55.19474875 44.80969232 59.30341913 43.4765625 64.3828125 C37.10932483 64.76155952 32.91395656 63.71326484 27.1640625 61.0703125 C20.70676596 58.2459983 14.37075667 55.94629066 7.4765625 54.3828125 C7.20318078 48.31373832 8.01563805 43.60659196 9.9765625 37.8828125 C10.21503906 37.15578125 10.45351563 36.42875 10.69921875 35.6796875 C11.28116426 33.91057315 11.87736707 32.14615904 12.4765625 30.3828125 C17.9481614 28.95244176 21.61918084 29.98904498 26.7890625 31.7578125 C27.51673828 31.99242187 28.24441406 32.22703125 28.99414062 32.46875 C34.30461165 34.21086165 34.30461165 34.21086165 35.4765625 35.3828125 C35.99914112 41.52311133 34.43370533 46.59293162 32.4765625 52.3828125 C34.1265625 52.7128125 35.7765625 53.0428125 37.4765625 53.3828125 C37.86328125 52.66996094 38.25 51.95710938 38.6484375 51.22265625 C39.16921875 50.26488281 39.69 49.30710937 40.2265625 48.3203125 C41.04060547 46.81791016 41.04060547 46.81791016 41.87109375 45.28515625 C43.16638379 42.9435492 44.51639805 40.6632124 45.9140625 38.3828125 C46.4296875 37.3928125 46.9453125 36.4028125 47.4765625 35.3828125 C46.76846807 32.16771138 46.76846807 32.16771138 43.84375 30.82055664 C42.69132812 30.27520264 41.53890625 29.72984863 40.3515625 29.16796875 C39.73063721 28.87095566 39.10971191 28.57394257 38.4699707 28.26792908 C36.47658663 27.31741311 34.47676236 26.38138678 32.4765625 25.4453125 C31.15972241 24.81927112 29.84331085 24.1923275 28.52734375 23.56445312 C17.8569053 17.43545502 17.8569053 17.43545502 6.4765625 14.3828125 Z M19.4765625 40.3828125 C18.8165625 42.3628125 18.1565625 44.3428125 17.4765625 46.3828125 C19.4565625 47.0428125 21.4365625 47.7028125 23.4765625 48.3828125 C23.8065625 46.4028125 24.1365625 44.4228125 24.4765625 42.3828125 C22.0015625 41.3928125 22.0015625 41.3928125 19.4765625 40.3828125 Z " fill="#FCFCFC" transform="translate(379.5234375,277.6171875)"/>
<path d="M0 0 C1.5625 1.1640625 1.5625 1.1640625 3.1875 2.6875 C19.61159425 17.99504399 47.91960165 18.70923108 69 18 C70.81048409 17.88663758 72.62040188 17.76392015 74.4296875 17.6328125 C75.33589844 17.57077637 76.24210937 17.50874023 77.17578125 17.44482422 C78.94807921 17.31690329 80.71916877 17.17066202 82.48828125 17.00439453 C88.43797704 16.5748265 88.43797704 16.5748265 91.1015625 18.58984375 C92.31067694 21.83342467 92.01968122 23.87725427 91.5 27.3125 C91.40396484 27.97475586 91.30792969 28.63701172 91.20898438 29.31933594 C90.82789431 31.88333662 90.41400846 34.44110264 90 37 C89.60406021 39.50909779 89.2082363 42.01821386 88.8125 44.52734375 C87.7621332 51.14653237 86.69443345 57.76266072 85.58984375 64.37304688 C85.20317534 66.75067349 84.84030578 69.13232004 84.50390625 71.51757812 C84.26994141 73.12536133 84.26994141 73.12536133 84.03125 74.765625 C83.83885742 76.17763184 83.83885742 76.17763184 83.64257812 77.61816406 C82.91322014 80.32166576 82.27732959 81.38838194 80 83 C76.9030407 83.19278261 74.08208187 83.1818897 71 83 C70.01193359 82.94489258 69.02386719 82.88978516 68.00585938 82.83300781 C64.75091098 82.62794806 61.50127042 82.38157847 58.25 82.125 C57.14011719 82.04636719 56.03023438 81.96773438 54.88671875 81.88671875 C53.27990234 81.76103516 53.27990234 81.76103516 51.640625 81.6328125 C50.67672852 81.55949707 49.71283203 81.48618164 48.71972656 81.41064453 C45.8555602 80.97819141 43.58638343 80.30249114 41 79 C38.79844355 73.4009799 40.92000464 67.27573281 42.1875 61.625 C42.53433838 60.03328979 42.53433838 60.03328979 42.88818359 58.40942383 C43.57870299 55.26977042 44.28705212 52.13462644 45 49 C45.19319824 48.13133301 45.38639648 47.26266602 45.58544922 46.36767578 C46.08427239 44.13729504 46.59961666 41.9117545 47.125 39.6875 C47.56199219 37.83705078 47.56199219 37.83705078 48.0078125 35.94921875 C49.50764318 31.49106063 49.50764318 31.49106063 52 30 C60.20104492 29.6007386 69.03255638 31.01974217 77 33 C77.33 33.33 77.66 33.66 78 34 C78.99 31.03 78.99 31.03 80 28 C79.34 28.33 78.68 28.66 78 29 C75.44637396 29.08658569 72.9204558 29.11562516 70.3671875 29.09765625 C69.23943405 29.09553383 69.23943405 29.09553383 68.08889771 29.09336853 C65.6842249 29.08776465 63.27964473 29.07521157 60.875 29.0625 C59.24609509 29.0574855 57.61718873 29.0529225 55.98828125 29.04882812 C51.99215173 29.03779397 47.99609158 29.02052679 44 29 C43.88269531 30.14597656 43.76539063 31.29195313 43.64453125 32.47265625 C42.82698059 39.8162943 41.73938221 47.12459115 40.6875 54.4375 C40.57772827 55.20346497 40.46795654 55.96942993 40.3548584 56.75860596 C38.86657908 67.13793617 37.34142005 77.51092375 35.75 87.875 C35.58717529 88.9364624 35.42435059 89.9979248 35.2565918 91.09155273 C34.13121881 98.34521816 34.13121881 98.34521816 33.46289062 101.68017578 C32.50155737 106.49799679 32.27672521 110.55345042 34.5 115 C35.2425 115.99 35.2425 115.99 36 117 C39.40080577 116.89592083 39.40080577 116.89592083 43 116 C45.90082323 112.27818906 46.58121235 108.80461366 47.1875 104.1875 C47.34605469 103.02605469 47.50460937 101.86460937 47.66796875 100.66796875 C47.77753906 99.78753906 47.88710938 98.90710938 48 98 C51.3125 97.3125 51.3125 97.3125 55 97 C56.703125 98.12890625 56.703125 98.12890625 58 100 C59.26014749 107.56088494 58.1247853 114.55103228 54 121 C50.43301675 125.77996315 47.02715066 128.08060414 41 129 C35.72821364 128.98185271 31.16890045 128.4542318 27 125 C24.75833298 122.01111063 23.18134172 119.54402516 22 116 C21.175 116.165 20.35 116.33 19.5 116.5 C12.56104781 117.49127888 7.1068712 117.8023915 1 114 C-1.06448729 111.16542619 -2.55578049 108.18743759 -4 105 C-4.6496875 103.6696875 -4.6496875 103.6696875 -5.3125 102.3125 C-6.43030834 98.55259921 -6.72257893 95.70730277 -5.16015625 92.015625 C-2.21977371 86.74867715 1.41915171 83.35271055 7 81 C11.23750792 80.44032914 12.41123098 80.60748732 16 83 C16.4375 85.9375 16.4375 85.9375 16 89 C13.83332703 91.25000655 11.66878716 92.1493705 8.8125 93.4375 C5.97198796 94.71706361 5.97198796 94.71706361 4.875 96.8125 C5.08555768 100.49725936 6.55893106 102.31482416 9 105 C12.84392052 105.62900518 15.09468271 105.42365072 18.62109375 103.7734375 C21.50604062 101.62275461 21.87705485 100.5379518 22.625 97.0625 C22.85058594 96.01707031 23.07617188 94.97164063 23.30859375 93.89453125 C24.71795801 85.95590886 25.88746824 77.98497974 27 70 C25.07800781 70.2165625 25.07800781 70.2165625 23.1171875 70.4375 C15.0753617 71.31562593 7.02499848 72.15745021 -1.0625 72.4375 C-2.14660156 72.47746094 -3.23070312 72.51742187 -4.34765625 72.55859375 C-7 72 -7 72 -8.796875 69.93359375 C-14.56201187 55.87639314 -12.24234969 37.94061433 -11.125 23.1875 C-11.04668945 22.13763916 -10.96837891 21.08777832 -10.88769531 20.00610352 C-9.77837121 6.56564324 -9.77837121 6.56564324 -8 1 C-5.04206277 -0.47896861 -3.29779776 -0.4355582 0 0 Z M0 16 C0 18.31 0 20.62 0 23 C1.06476563 22.9175 2.12953125 22.835 3.2265625 22.75 C9.30315683 22.75 14.7163685 24.97954774 20.375 27 C22.52782747 27.75234584 24.68143482 28.50246499 26.8359375 29.25 C28.25205322 29.75273437 28.25205322 29.75273437 29.69677734 30.265625 C31.91466988 31.10125962 31.91466988 31.10125962 34 31 C34 29.68 34 28.36 34 27 C33.41621582 26.84442627 32.83243164 26.68885254 32.23095703 26.52856445 C11.92497793 21.06619594 11.92497793 21.06619594 4.7421875 16.8828125 C2.87950849 15.77399638 2.87950849 15.77399638 0 16 Z M9 35 C9.33 35.99 9.66 36.98 10 38 C10.66 37.01 11.32 36.02 12 35 C11.01 35 10.02 35 9 35 Z M19 38 C19.0721875 38.61746094 19.144375 39.23492187 19.21875 39.87109375 C20.94117647 55.58823529 20.94117647 55.58823529 18 60 C19.32 60 20.64 60 22 60 C22.33719047 57.43795456 22.66987153 54.87545682 23 52.3125 C23.14308594 51.2306543 23.14308594 51.2306543 23.2890625 50.12695312 C23.76683735 46.39007129 24.11919794 42.77708469 24 39 C22.35 38.67 20.7 38.34 19 38 Z M58 41 C57.67 42.65 57.34 44.3 57 46 C58.7015625 46.2165625 58.7015625 46.2165625 60.4375 46.4375 C64 47 64 47 65 48 C65.23192865 49.51469448 65.41215238 51.03754562 65.5625 52.5625 C65.64628906 53.38878906 65.73007812 54.21507812 65.81640625 55.06640625 C65.87699219 55.70449219 65.93757813 56.34257812 66 57 C66.33 57 66.66 57 67 57 C67.66 52.38 68.32 47.76 69 43 C66.5559375 42.505 66.5559375 42.505 64.0625 42 C63.14597656 41.814375 62.22945313 41.62875 61.28515625 41.4375 C59.22408298 40.96866036 59.22408298 40.96866036 58 41 Z M8 44 C8 45.32 8 46.64 8 48 C8.66 48 9.32 48 10 48 C9.34 46.68 8.68 45.36 8 44 Z M0 57 C0 58.32 0 59.64 0 61 C1.79133978 61.05391993 3.58313899 61.09275571 5.375 61.125 C6.37273437 61.14820313 7.37046875 61.17140625 8.3984375 61.1953125 C11.16262173 61.27216848 11.16262173 61.27216848 13 59 C8.71 58.34 4.42 57.68 0 57 Z M54 58 C53.34 61.96 52.68 65.92 52 70 C54.56204544 70.33719047 57.12454318 70.66987153 59.6875 71 C60.40873047 71.09539062 61.12996094 71.19078125 61.87304688 71.2890625 C65.60992871 71.76683735 69.22291531 72.11919794 73 72 C73.33 70.68 73.66 69.36 74 68 C72.95199219 67.96261719 71.90398437 67.92523438 70.82421875 67.88671875 C69.44527695 67.82105485 68.06637229 67.75460765 66.6875 67.6875 C65.99720703 67.66494141 65.30691406 67.64238281 64.59570312 67.61914062 C59.50246761 67.3484856 59.50246761 67.3484856 57.0625 65.65625 C55.50650502 63.23072841 55.31412175 60.82709573 55 58 C54.67 58 54.34 58 54 58 Z " fill="#FCFCFC" transform="translate(225,368)"/>
<path d="M0 0 C4.35306483 0.41481559 7.8318173 1.83361027 11.83984375 3.51171875 C13.46525905 4.16237593 15.0915741 4.81078962 16.71875 5.45703125 C17.51941895 5.77704102 18.32008789 6.09705078 19.14501953 6.42675781 C41.79364249 15.43133687 66.98273853 20.44433407 91.38671875 20.30078125 C94.40127364 20.32421043 95.89467264 20.71930924 98.40234375 22.32421875 C98.40234375 24.96421875 98.40234375 27.60421875 98.40234375 30.32421875 C88.87316709 35.08880708 70.46973732 31.04458134 60.40234375 29.32421875 C59.64518066 29.1953125 58.88801758 29.06640625 58.10791016 28.93359375 C39.29205129 25.63269993 21.13859957 20.39865177 3.40234375 13.32421875 C3.29792969 14.40316406 3.19351563 15.48210937 3.0859375 16.59375 C2.38440516 22.19244661 0.91706371 27.5685058 -0.53515625 33.01171875 C-0.80005859 34.03072266 -1.06496094 35.04972656 -1.33789062 36.09960938 C-2.53573902 40.64429967 -3.82744966 44.96738192 -5.59765625 49.32421875 C-6.06237104 51.15084338 -6.49834098 52.98494565 -6.91015625 54.82421875 C-8.53819763 61.57135933 -10.97899396 67.90694356 -13.59765625 74.32421875 C4.17111145 70.00726871 21.36801063 65.22892903 37.65234375 56.76171875 C38.33151855 56.41004639 39.01069336 56.05837402 39.71044922 55.69604492 C44.7111411 52.9799046 50.78504334 49.55881957 53.40234375 44.32421875 C52.8196875 44.21464844 52.23703125 44.10507812 51.63671875 43.9921875 C44.8270651 42.67522618 38.11782934 41.05501401 31.40234375 39.32421875 C32.05203125 39.75992188 32.70171875 40.195625 33.37109375 40.64453125 C40.14792679 45.47616221 40.14792679 45.47616221 41.33984375 49.44921875 C39.74738527 54.33275809 36.4625609 56.14642436 32.22265625 58.5703125 C26.30369262 61.52979432 20.13928647 63.40305066 13.77734375 65.13671875 C12.99012939 65.35585938 12.20291504 65.575 11.3918457 65.80078125 C5.92760932 67.21399496 1.04402107 67.52128333 -4.59765625 67.32421875 C-5.84765625 64.69921875 -5.84765625 64.69921875 -6.59765625 61.32421875 C-3.945767 56.77265883 -0.62152308 52.69151079 2.65234375 48.57421875 C3.13396973 47.96513672 3.6155957 47.35605469 4.11181641 46.72851562 C5.53937334 44.92498637 6.97031201 43.12419601 8.40234375 41.32421875 C9.55089844 39.87789063 9.55089844 39.87789063 10.72265625 38.40234375 C12.04137971 36.74767172 13.36879601 35.09986933 14.70703125 33.4609375 C16.39674981 31.39169561 16.39674981 31.39169561 17.72265625 29.34375 C18.90234375 27.63671875 18.90234375 27.63671875 21.40234375 25.32421875 C28.3522348 25.6361241 34.92851897 27.67719909 41.58984375 29.57421875 C42.69448975 29.88560791 43.79913574 30.19699707 44.93725586 30.51782227 C52.6098355 32.71765279 60.06623235 35.1593357 67.40234375 38.32421875 C68.36457661 41.09063822 68.74387338 42.4696427 68.40234375 45.32421875 C61.00023008 58.92085051 45.91841635 66.20335439 32.40234375 72.32421875 C30.69884766 73.10925781 30.69884766 73.10925781 28.9609375 73.91015625 C11.86270354 81.26298041 -9.79259428 88.51819094 -28.59765625 87.32421875 C-30.59765625 85.32421875 -30.59765625 85.32421875 -30.97265625 82.51171875 C-30.59765625 79.32421875 -30.59765625 79.32421875 -28.80859375 77.16796875 C-26.00121619 73.55706617 -24.5025151 69.87468977 -22.84765625 65.63671875 C-22.50839111 64.77602783 -22.16912598 63.91533691 -21.81958008 63.02856445 C-16.01695989 47.95029111 -11.01752656 32.39371654 -8.17578125 16.47265625 C-5.27184749 0.65798999 -5.27184749 0.65798999 0 0 Z M25.40234375 37.32421875 C24.74234375 38.64421875 24.08234375 39.96421875 23.40234375 41.32421875 C25.05234375 40.00421875 26.70234375 38.68421875 28.40234375 37.32421875 C27.41234375 37.32421875 26.42234375 37.32421875 25.40234375 37.32421875 Z M22.40234375 41.32421875 C20.85045167 43.13133693 19.33557778 44.97035121 17.83984375 46.82421875 C17.01355469 47.84515625 16.18726563 48.86609375 15.3359375 49.91796875 C14.69785156 50.71203125 14.05976563 51.50609375 13.40234375 52.32421875 C16.22048941 53.73329158 17.57511579 52.83294566 20.52734375 51.88671875 C21.43742187 51.59925781 22.3475 51.31179688 23.28515625 51.015625 C23.98382813 50.78746094 24.6825 50.55929687 25.40234375 50.32421875 C24.74234375 47.35421875 24.08234375 44.38421875 23.40234375 41.32421875 C23.07234375 41.32421875 22.74234375 41.32421875 22.40234375 41.32421875 Z " fill="#FCFCFC" transform="translate(340.59765625,407.67578125)"/>
<path d="M0 0 C2.375 0.5 2.375 0.5 4.25 1.625 C5.375 3.5 5.375 3.5 5.3125 6.375 C4.25846651 9.88844496 2.91884957 11.87906408 0.375 14.5 C-0.285 14.5 -0.945 14.5 -1.625 14.5 C-1.86992187 15.06460938 -2.11484375 15.62921875 -2.3671875 16.2109375 C-3.851895 18.91292072 -5.64466335 20.87295 -7.75 23.125 C-11.51659138 27.23400878 -15.0466637 31.45187839 -18.49609375 35.828125 C-22.45064099 40.79126319 -26.54783903 45.63748425 -30.625 50.5 C-26.52075471 54.90614802 -21.97326181 58.28566767 -17.0625 61.75 C-15.45253044 62.89890688 -13.84315701 64.04864957 -12.234375 65.19921875 C-11.44998047 65.75915527 -10.66558594 66.3190918 -9.85742188 66.89599609 C-3.31799779 71.59459805 3.10579627 76.44636899 9.375 81.5 C9.26352117 78.18690354 9.13329114 74.87478494 9 71.5625 C8.9690625 70.63630859 8.938125 69.71011719 8.90625 68.75585938 C8.68344941 63.46434526 8.06936406 58.58710805 6.79833984 53.44702148 C6.28805604 51.10012797 6.22060196 48.89316963 6.375 46.5 C4.91533966 47.62327771 3.45731636 48.74868294 2 49.875 C1.18789063 50.50148438 0.37578125 51.12796875 -0.4609375 51.7734375 C-2.66723195 53.46773494 -2.66723195 53.46773494 -4.625 55.5 C-8.125 55.75 -8.125 55.75 -11.625 55.5 C-13.625 53.5 -13.625 53.5 -13.6796875 50.265625 C-12.26848561 45.22711159 -9.7820254 43.3726065 -5.75 40.25 C-4.48117909 39.22469018 -3.2129303 38.19867188 -1.9453125 37.171875 C-1.38086426 36.7294043 -0.81641602 36.28693359 -0.23486328 35.83105469 C1.42679829 34.52131462 1.42679829 34.52131462 2.87158203 32.85253906 C4.375 31.5 4.375 31.5 7.75 31.1875 C11.76982722 32.64295468 12.18061732 33.10512221 14.125 36.6875 C20.37387113 51.09690349 20.55713524 67.11478367 20.625 82.5625 C20.645625 83.77099609 20.66625 84.97949219 20.6875 86.22460938 C20.69523437 87.95614258 20.69523437 87.95614258 20.703125 89.72265625 C20.7124707 90.76172119 20.72181641 91.80078613 20.73144531 92.87133789 C20.375 95.5 20.375 95.5 19.02148438 97.35620117 C17.375 98.5 17.375 98.5 14.703125 98.578125 C10.03268427 97.06516533 6.88043266 94.34693011 3.125 91.25 C1.52954663 89.96990583 -0.06817597 88.69263562 -1.66796875 87.41796875 C-2.89265869 86.44029541 -2.89265869 86.44029541 -4.14208984 85.44287109 C-8.0739922 82.36616717 -12.12347759 79.46117006 -16.1875 76.5625 C-22.10347405 72.32935057 -27.92923751 68.02711003 -33.625 63.5 C-36.00761355 61.6582019 -38.39208667 59.81884149 -40.77734375 57.98046875 C-44.56002678 54.94952399 -44.56002678 54.94952399 -44.9609375 52.17578125 C-44.5385412 48.81134563 -43.37547381 47.3031341 -41.25 44.6875 C-40.62351562 43.89730469 -39.99703125 43.10710937 -39.3515625 42.29296875 C-38.78179687 41.70128906 -38.21203125 41.10960937 -37.625 40.5 C-36.965 40.5 -36.305 40.5 -35.625 40.5 C-35.356875 39.943125 -35.08875 39.38625 -34.8125 38.8125 C-33.51600504 36.28774666 -32.20023677 33.86285516 -30.625 31.5 C-29.965 31.5 -29.305 31.5 -28.625 31.5 C-28.38265625 30.93796875 -28.1403125 30.3759375 -27.890625 29.796875 C-26.3748937 27.04610337 -24.52111758 25.04211197 -22.375 22.75 C-18.88929551 18.96680382 -15.74714511 15.12337728 -12.81640625 10.8984375 C-12.22666016 10.20621094 -12.22666016 10.20621094 -11.625 9.5 C-10.965 9.5 -10.305 9.5 -9.625 9.5 C-9.398125 8.943125 -9.17125 8.38625 -8.9375 7.8125 C-6.76531466 3.9853163 -4.46342792 0.85017675 0 0 Z " fill="#FCFCFC" transform="translate(468.625,212.5)"/>
<path d="M0 0 C14.01563272 0.25664434 36.77400445 4.21150445 46.9375 14.375 C47.28240322 18.42761287 47.23913882 19.92254176 44.9375 23.375 C44.2775 23.375 43.6175 23.375 42.9375 23.375 C42.67839844 23.96410156 42.41929687 24.55320312 42.15234375 25.16015625 C40.85326581 27.52857165 39.4699037 28.97815957 37.5 30.8125 C34.73881852 33.47056682 32.85587629 36.04308328 30.9375 39.375 C30.2775 39.375 29.6175 39.375 28.9375 39.375 C28.55271484 40.25285156 28.55271484 40.25285156 28.16015625 41.1484375 C26.83187838 43.56734608 25.37225199 45.10698872 23.375 47 C20.79734611 49.42021959 20.79734611 49.42021959 18.9375 52.375 C18.2775 52.375 17.6175 52.375 16.9375 52.375 C16.710625 52.91125 16.48375 53.4475 16.25 54 C14.48179911 57.19960161 12.40079797 59.66537223 9.9375 62.375 C9.2775 62.375 8.6175 62.375 7.9375 62.375 C7.628125 63.014375 7.31875 63.65375 7 64.3125 C5.9375 66.375 5.9375 66.375 4.9375 67.375 C2.60452567 67.41592937 0.27044775 67.41741723 -2.0625 67.375 C-2.65417969 66.25222656 -3.24585938 65.12945312 -3.85546875 63.97265625 C-4.65359524 62.46091079 -5.4517752 60.94919356 -6.25 59.4375 C-6.63736328 58.70208984 -7.02472656 57.96667969 -7.42382812 57.20898438 C-9.82267676 52.66901465 -12.27583222 48.16412114 -14.77905273 43.6809082 C-16.11295857 41.28434351 -17.43133362 38.87977338 -18.74609375 36.47265625 C-19.19621826 35.64967041 -19.64634277 34.82668457 -20.11010742 33.97875977 C-21.05752072 32.2465228 -22.00427084 30.513923 -22.95043945 28.78100586 C-25.8386348 23.51723434 -28.81492862 18.35373434 -32.13671875 13.34765625 C-33.29815986 10.87285556 -33.31316576 9.07860924 -33.0625 6.375 C-31.875 4.5625 -31.875 4.5625 -30.0625 3.375 C-27.625 2.875 -27.625 2.875 -25.0625 3.375 C-20.90971543 7.78111347 -18.14527096 13.19790105 -15.1875 18.4375 C-14.38687134 19.84769409 -14.38687134 19.84769409 -13.57006836 21.28637695 C-9.84517498 27.88734573 -6.34091944 34.54067733 -3.0625 41.375 C-2.10722477 43.29319267 -1.14902822 45.20993411 -0.1875 47.125 C0.52083333 48.54166667 1.22916667 49.95833333 1.9375 51.375 C5.05947478 50.0660428 5.05947478 50.0660428 6.9375 47.375 C7.5975 47.375 8.2575 47.375 8.9375 47.375 C9.164375 46.83875 9.39125 46.3025 9.625 45.75 C11.39320089 42.55039839 13.47420203 40.08462777 15.9375 37.375 C16.5975 37.375 17.2575 37.375 17.9375 37.375 C18.32228516 36.49714844 18.32228516 36.49714844 18.71484375 35.6015625 C20.04312162 33.18265392 21.50274801 31.64301128 23.5 29.75 C26.07765389 27.32978041 26.07765389 27.32978041 27.9375 24.375 C28.5975 24.375 29.2575 24.375 29.9375 24.375 C30.2675 22.725 30.5975 21.075 30.9375 19.375 C25.41007719 16.81753571 19.89852025 15.17222259 14 13.6875 C13.12537109 13.46255859 12.25074219 13.23761719 11.34960938 13.00585938 C9.21346479 12.45723208 7.07615534 11.91374036 4.9375 11.375 C5.36216553 12.10819458 5.36216553 12.10819458 5.79541016 12.85620117 C7.07015193 15.08133435 8.31634012 17.32124481 9.5625 19.5625 C10.23152344 20.71588867 10.23152344 20.71588867 10.9140625 21.89257812 C14.09236905 27.67808927 14.09236905 27.67808927 13.2734375 31.36328125 C11.34216736 34.27148044 11.34216736 34.27148044 8.25 35.0625 C4.9375 34.375 4.9375 34.375 3.34765625 32.42578125 C1.76144849 29.79017396 0.32563496 27.11981077 -1.0625 24.375 C-1.44535156 23.66085938 -1.82820313 22.94671875 -2.22265625 22.2109375 C-8.90539245 9.45529655 -8.90539245 9.45529655 -8.0625 2.375 C-5.33754157 -0.34995843 -3.81655751 0.04381811 0 0 Z " fill="#FCFCFC" transform="translate(301.0625,101.625)"/>
<path d="M0 0 C0.33 0.99 0.66 1.98 1 3 C0.071875 3.4021875 0.071875 3.4021875 -0.875 3.8125 C-3.2995233 4.95556848 -3.2995233 4.95556848 -5 8 C-5.66 8 -6.32 8 -7 8 C-7 7.01 -7 6.02 -7 5 C-5.46875 3.61328125 -5.46875 3.61328125 -3.5 2.3125 C-2.8503125 1.87550781 -2.200625 1.43851563 -1.53125 0.98828125 C-1.0259375 0.66214844 -0.520625 0.33601562 0 0 Z " fill="#F0F0F0" transform="translate(413,220)"/>
</svg>
